<svg width="88" height="88" viewBox="0 0 88 88" fill="none" xmlns="http://www.w3.org/2000/svg">
<g clip-path="url(#clip0_1078_2388)">
<path d="M81.3217 50.0965H59.0989V33.0463H81.3217V50.0965Z" fill="#E2E8FF"/>
<path d="M81.3217 37.3717H59.0989V33.0463H81.3217V37.3717Z" fill="#B2B2B2"/>
<path d="M70.8042 50.0988H69.4519V33.0463H70.8042V50.0988Z" fill="#AC1E23"/>
<path d="M81.358 41.505H59.0902V40.155H81.358V41.505Z" fill="#AC1E23"/>
<path d="M70.0858 33.1105L76.5604 28.4457L78.3717 31.0675L70.0858 33.1105Z" fill="#AC1E23"/>
<path d="M63.5029 29.6083L70.0859 33.1105L61.9725 31.9477L63.5029 29.6083Z" fill="#AC1E23"/>
<path d="M70.0859 33.1104L66.7313 29.4634H69.1119L70.0859 33.1104Z" fill="#AC1E23"/>
<path d="M67.4523 56.1754L79.4845 51.2473L78.8765 49.7571L66.8442 54.6828L67.4523 56.1754Z" fill="#AC1E23"/>
<path d="M79.5489 51.2401H63.213V49.7454H79.5489V51.2401Z" fill="#AC1E23"/>
<path d="M47.8611 71.2825H30.436V67.5669H47.8611V71.2825Z" fill="#231F20"/>
<path d="M72.2989 61.1581H77.1066C78.0367 61.1581 78.8019 60.3965 78.8019 59.4615V59.0771C78.8019 58.1423 78.0367 57.3784 77.1066 57.3784H72.2989C71.3661 57.3784 70.6009 58.1423 70.6009 59.0771V59.4615C70.6009 60.3965 71.3661 61.1581 72.2989 61.1581Z" fill="#E31E22"/>
<path d="M72.3349 57.0912H75.3339L76.8953 61.4475H72.3349C71.1369 61.4475 70.1527 60.4677 70.1527 59.2694C70.1527 58.0713 71.1369 57.0912 72.3349 57.0912Z" fill="#AC1E23"/>
<path d="M73.18 63.9437H77.3978C78.029 63.9437 78.5469 63.4265 78.5469 62.7953V62.5343C78.5469 61.9031 78.029 61.386 77.3978 61.386H73.18C72.5488 61.386 72.0335 61.9031 72.0335 62.5343V62.7953C72.0335 63.4265 72.5488 63.9437 73.18 63.9437Z" fill="#FBAD50"/>
<path d="M73.4094 61.1914H75.7901L77.032 64.1382H73.4094C72.4561 64.1382 71.678 63.4763 71.678 62.6647C71.678 61.8534 72.4561 61.1914 73.4094 61.1914Z" fill="#AC1E23"/>
<path d="M23.1575 43.4007L23.2734 43.1018C23.897 41.4743 25.7417 40.6532 27.3701 41.2795L27.6741 41.396L25.3552 47.6432L24.9816 47.4984C23.3508 46.8744 22.534 45.0308 23.1575 43.4007Z" fill="#155F84"/>
<path d="M64.8374 54.7516C64.8374 54.7516 73.1646 56.0328 74.7028 59.4281C76.2384 62.8258 73.9968 66.2214 73.9968 66.2214C73.9968 66.2214 48.5643 72.9479 46.449 72.2432C44.3362 71.5385 47.0261 67.7588 46.0006 65.7729C44.9778 63.787 43.3752 62.5058 42.7981 60.2611C42.221 58.0188 43.3082 53.9047 43.3082 53.9047L64.773 54.4955L64.8374 54.7516Z" fill="#AC1E23"/>
<path d="M54.1601 74.9006C54.1601 80.0139 58.3031 84.1591 63.4149 84.1591C68.5267 84.1591 72.6723 80.0139 72.6723 74.9006C72.6723 69.7875 68.5267 65.6448 63.4149 65.6448C58.3031 65.6448 54.1601 69.7875 54.1601 74.9006Z" fill="#231F20"/>
<path d="M58.3288 74.9006C58.3288 77.71 60.609 79.9855 63.4149 79.9855C66.2232 79.9855 68.4982 77.71 68.4982 74.9006C68.4982 72.0938 66.2232 69.816 63.4149 69.816C60.609 69.816 58.3288 72.0938 58.3288 74.9006Z" fill="#95979A"/>
<path d="M61.2383 74.9007C61.2383 76.1037 62.2122 77.0812 63.4154 77.0812C64.6212 77.0812 65.5951 76.1037 65.5951 74.9007C65.5951 73.6978 64.6212 72.7225 63.4154 72.7225C62.2122 72.7225 61.2383 73.6978 61.2383 74.9007Z" fill="#664624"/>
<path d="M8.26545 74.9006C8.26545 80.0139 12.4111 84.1591 17.5254 84.1591C22.6371 84.1591 26.7828 80.0139 26.7828 74.9006C26.7828 69.7875 22.6371 65.6448 17.5254 65.6448C12.4111 65.6448 8.26545 69.7875 8.26545 74.9006Z" fill="#231F20"/>
<path d="M12.4393 74.9006C12.4393 77.71 14.7144 79.9855 17.5253 79.9855C20.3311 79.9855 22.6087 77.71 22.6087 74.9006C22.6087 72.0938 20.3311 69.816 17.5253 69.816C14.7144 69.816 12.4393 72.0938 12.4393 74.9006Z" fill="#95979A"/>
<path d="M15.3428 74.9007C15.3428 76.1037 16.3219 77.0812 17.5251 77.0812C18.7283 77.0812 19.7023 76.1037 19.7023 74.9007C19.7023 73.6978 18.7283 72.7225 17.5251 72.7225C16.3219 72.7225 15.3428 73.6978 15.3428 74.9007Z" fill="#664624"/>
<path d="M52.0891 72.7558H28.1296V70.5137H52.0891V72.7558Z" fill="#AC1E23"/>
<path d="M49.3243 73.9967C49.3192 73.8591 49.3115 73.7216 49.3115 73.5839C49.3115 65.7872 55.6316 59.4688 63.4281 59.4688C71.2219 59.4688 77.5421 65.7872 77.5421 73.5839C77.5421 73.7216 77.5343 73.8591 77.5292 73.9967H49.3243Z" fill="#E31E22"/>
<path d="M33.9117 38.8523L30.7065 37.6993C30.7065 37.6993 23.7062 44.5018 20.8232 51.869C17.94 59.2362 18.7723 63.3388 20.4393 67.0543C22.3227 71.254 24.5384 71.0262 24.5384 71.0262L33.1259 70.8981C33.1259 70.8981 27.6792 64.3637 27.4885 56.2895C27.2824 47.7381 33.9117 38.8523 33.9117 38.8523Z" fill="#AC1E23"/>
<path d="M6.64208 70.0889C6.75285 69.7615 6.8791 69.4317 7.02337 69.1089C9.62819 63.2484 16.492 60.6075 22.3535 63.2129C26.9319 65.2486 29.5445 69.8872 29.225 74.6137L6.64208 70.0889Z" fill="#E31E22"/>
<path d="M33.1904 33.3478H35.8262C36.9315 33.3478 37.8384 32.4414 37.8384 31.3332V30.8777C37.8384 29.7696 36.9315 28.8634 35.8262 28.8634H33.1904C32.0799 28.8634 31.1756 29.7696 31.1756 30.8777V31.3332C31.1756 32.4414 32.0799 33.3478 33.1904 33.3478Z" fill="#231F20"/>
<path d="M31.0959 39.2059L32.0208 38.7645C32.0183 38.755 31.454 37.5047 31.7477 35.3383C32.0415 33.1555 33.1674 31.6939 33.1803 31.6771L32.3738 31.0438C32.3197 31.1126 31.0649 32.7284 30.73 35.2007C30.3951 37.6943 31.0675 39.1464 31.0959 39.2059ZM69.0012 49.705V50.9294C69.0012 53.366 67.7567 55.3592 66.2392 55.3592H44.0839C42.5664 55.3592 41.3246 53.366 41.3246 50.9294V49.705H69.0012Z" fill="#231F20"/>
<path d="M47.1677 23.1046L46.7787 21.325L51.2515 18.8766L51.6457 20.2787L47.1677 23.1046Z" fill="#155F84"/>
<path d="M49.5201 28.6023C45.2406 29.5726 47.5517 24.5402 47.5336 21.3559L46.6731 14.9046L48.3916 14.2023C48.3916 14.2023 49.4274 15.8987 50.78 16.8692C51.1511 18.376 51.5607 20.0059 51.7128 20.4188C51.6277 21.2635 53.7997 27.6294 49.5201 28.6023Z" fill="#664624"/>
<path d="M43.2335 9.98136C42.7156 11.806 43.7307 12.9899 43.2747 13.8107C42.8186 14.6319 42.5739 14.5845 42.5791 14.8975C42.5868 15.2131 43.1613 15.2487 43.2412 15.6664C43.3417 16.1716 43.5968 16.9095 43.6818 17.4387C43.79 18.0936 43.6895 18.5324 44.2486 18.746C45.2792 19.1423 46.8174 18.3047 47.6934 17.8327C48.9353 17.161 49.9607 15.4267 49.9453 14.2284C50.8393 13.8535 53.761 11.4618 51.741 8.95869C49.7211 6.45537 44.2048 6.55511 43.2335 9.98136Z" fill="#815932"/>
<path d="M43.2334 9.98133C43.5631 9.70846 46.3123 9.19596 46.9435 10.6218C47.4691 11.8106 47.178 12.4132 48.7084 12.8951C49.4685 11.7204 50.463 13.0421 49.8112 13.5853C49.6695 13.7064 49.806 14.098 49.806 14.098L49.5071 15.8039L50.7644 16.8716C50.7644 16.8716 53.5213 15.5429 53.3074 12.1617C53.091 8.71911 51.2772 6.84934 49.1232 6.86608C45.274 6.8944 43.6224 8.47946 43.2334 9.98133Z" fill="black"/>
<path d="M43.1999 9.87693C43.0505 9.29796 43.3751 6.46721 44.4031 5.6226C45.4338 4.77549 47.8273 4.1919 48.7007 4.27973C49.5742 4.36501 51.8595 5.43503 52.7046 6.503C53.5136 7.52303 53.1323 10.062 53.0653 10.7784C49.1825 11.0657 46.7194 10.8212 43.1999 9.87693Z" fill="#1E7DAC"/>
<path d="M47.5648 10.7478C47.5648 10.7478 45.4984 11.1296 41.9171 11.3504C39.2247 11.5141 38.6243 9.69425 38.6243 9.69425L43.1899 8.81384C43.1899 8.81384 43.414 9.16508 44.5889 9.75587C45.769 10.3467 47.5648 10.7478 47.5648 10.7478Z" fill="#18658C"/>
<path d="M43.7435 13.5355C43.7976 13.7823 44.0423 13.939 44.2897 13.8844C44.5319 13.8297 44.6891 13.5878 44.6349 13.341C44.5834 13.0941 44.3387 12.9378 44.0913 12.9921C43.844 13.0467 43.6894 13.291 43.7435 13.5355Z" fill="black"/>
<path d="M43.6382 17.2205C43.5429 16.8716 43.4295 16.492 43.3548 16.1313L44.7178 15.9915C44.7178 15.9915 44.2901 16.8598 43.6382 17.2205Z" fill="white"/>
<path d="M48.7191 13.5712C48.9175 14.2666 49.4277 14.7268 49.8553 14.6033C50.283 14.4799 50.466 13.818 50.2624 13.1229C50.0614 12.4298 49.5539 11.9673 49.1262 12.0907C48.6985 12.2142 48.5181 12.8784 48.7191 13.5712Z" fill="#815932"/>
<path d="M43.3085 12.6363L45.1326 12.4297L45.1197 12.3302C45.0785 12.0739 44.7848 11.9079 44.4627 11.9576L43.19 12.0669L43.3085 12.6363Z" fill="black"/>
<path d="M48.5458 4.33187L49.3343 4.49087C49.4708 4.51945 49.5996 4.43161 49.628 4.29864C49.6563 4.16365 49.5687 4.03297 49.4348 4.00439L48.6412 3.84566C48.5098 3.81944 48.3758 3.90498 48.35 4.04025C48.3217 4.17293 48.4093 4.30584 48.5458 4.33187Z" fill="#1E7DAC"/>
<path d="M52.112 11.7586C52.179 12.2638 52.6479 12.6151 53.1529 12.5462C53.6553 12.4749 54.0083 12.0101 53.9413 11.5046C53.8691 10.9993 53.4054 10.6479 52.8978 10.7169C52.3929 10.7881 52.0424 11.2531 52.112 11.7586Z" fill="black"/>
<path d="M52.2227 13.3387C52.2948 13.844 52.7586 14.1975 53.2636 14.1264C53.7686 14.0575 54.1216 13.5902 54.052 13.0873C53.9799 12.5818 53.5161 12.2283 53.0111 12.2994C52.5087 12.3682 52.1531 12.8355 52.2227 13.3387Z" fill="black"/>
<path d="M51.6381 14.7576C51.705 15.2605 52.174 15.614 52.6764 15.5452C53.1813 15.4741 53.5343 15.009 53.4648 14.5035C53.3952 13.9982 52.9289 13.6471 52.4239 13.7159C51.9188 13.7847 51.5659 14.2521 51.6381 14.7576Z" fill="black"/>
<path d="M50.6489 15.9105C50.7184 16.4138 51.1848 16.7673 51.6897 16.6985C52.1947 16.6274 52.5477 16.162 52.4781 15.6568C52.4086 15.1513 51.9397 14.8001 51.4346 14.8691C50.9322 14.9377 50.5792 15.4053 50.6489 15.9105Z" fill="black"/>
<path d="M49.4016 16.3448C49.4737 16.848 49.9375 17.2015 50.4425 17.1304C50.9501 17.0616 51.3004 16.5966 51.2309 16.091C51.1588 15.5858 50.695 15.2323 50.19 15.3034C49.685 15.3722 49.332 15.8396 49.4016 16.3448Z" fill="black"/>
<path d="M46.8017 24.1534L47.9302 22.3977L52.0294 20.0297C52.0294 20.0297 53.2274 21.4913 53.5572 24.3623C53.7736 26.2485 57.0586 40.6034 57.0586 40.6034L48.7727 41.5715C48.7727 41.5715 46.8506 34.3869 46.2013 31.4471C45.8664 29.9381 46.8017 24.1534 46.8017 24.1534Z" fill="#1E7DAC"/>
<path d="M47.9481 22.8605L47.5539 21.0786L52.0293 18.6322L52.4235 20.0346L47.9481 22.8605Z" fill="#155F84"/>
<path d="M46.8016 24.1533L47.5772 21.1829L47.876 22.5448L46.8016 24.1533Z" fill="#0F5070"/>
<path d="M57.8399 41.8727C57.8399 41.8727 59.713 45.8328 58.4737 48.0276C56.6907 51.1761 42.5175 51.3469 42.5175 51.3469L42.0563 66.8408L37.7613 66.6865L36.0736 46.4379L49.0077 43.2253L57.8399 41.8727Z" fill="#132E42"/>
<path d="M48.6982 41.524L57.1027 40.5916C57.1027 40.5916 57.368 41.0139 57.551 41.339C57.7365 41.6662 58.0354 42.2405 58.0354 42.2405L49.0125 43.2443L48.6982 41.524Z" fill="#664624"/>
<path d="M53.9411 42.6961L54.562 42.6273L54.3688 40.8951L53.7479 40.9641L53.9411 42.6961Z" fill="#132E42"/>
<path d="M36.9571 40.2048L35.7488 38.8238L44.0888 34.3941C44.0888 34.3941 48.9507 22.7252 49.5484 22.6442C49.5484 22.6442 51.0402 22.3881 51.6972 23.6931C52.3542 24.9981 46.5056 36.8119 46.5056 36.8119L36.9571 40.2048Z" fill="#815932"/>
<path d="M50.7079 29.2951C50.2596 29.2286 49.2831 29.0078 48.7008 28.7777C47.7707 28.4147 47.0081 27.7479 46.7607 27.3707L48.1855 24.3456C49.028 22.4591 50.0328 22.21 50.9887 22.5424C51.9446 22.8768 52.3594 23.3135 52.1404 24.7584C51.9214 26.2033 50.7079 29.2951 50.7079 29.2951Z" fill="#155F84"/>
<path d="M49.1207 27.7361C49.6644 27.9402 50.5172 28.1466 51.0634 28.2512C50.8599 28.8657 50.7079 29.2951 50.7079 29.2951C50.2595 29.2287 49.283 29.0079 48.7008 28.7778C47.7707 28.4148 47.008 27.748 46.7606 27.3708L47.1935 26.4502C47.5053 26.8014 48.2731 27.4182 49.1207 27.7361Z" fill="white"/>
<path d="M49.6876 43.1801L50.2338 43.1183C49.9993 43.3367 49.7623 43.5952 49.5665 43.8871C48.8141 44.9953 49.0925 45.6621 49.1517 45.8424L52.9443 42.8099L53.5214 42.7434L48.8786 46.6063C48.8786 46.6063 48.7781 46.471 48.706 46.3263C48.6364 46.1838 48.2809 45.1398 49.2084 43.7732C49.3578 43.5573 49.5201 43.3604 49.6876 43.1801Z" fill="#0A4F6F"/>
<path d="M42.4504 69.6001V67.1064H38.4646C38.4646 67.1064 35.3521 66.862 34.9039 67.5928C34.6462 68.0104 34.7441 69.6001 34.7441 69.6001H42.4504Z" fill="#664624"/>
<path d="M42.4608 69.5884H34.7212V68.9548H42.4608V69.5884Z" fill="#9D764B"/>
<path d="M42.5864 64.29H37.4025L37.2453 67.1111H42.4601L42.5864 64.29Z" fill="#0A4F6F"/>
<path d="M36.9779 40.2049C36.9779 40.2049 35.7361 41.4053 35.0739 40.6081C34.1902 39.543 33.4765 38.7742 32.871 39.4858C31.49 41.1114 31.3766 40.4208 31.3766 40.4208C31.3766 40.4208 31.7013 38.2592 33.5435 38.0577C34.86 37.9129 36.2797 38.895 36.2797 38.895L36.9779 40.2049Z" fill="#815932"/>
<path d="M31.6626 40.8384C31.6626 41.759 32.4098 42.5062 33.3322 42.5062C34.2546 42.5062 34.9991 41.759 34.9991 40.8384C34.9991 39.9152 34.2546 39.1702 33.3322 39.1702C32.4098 39.1702 31.6626 39.9152 31.6626 40.8384Z" fill="#231F20"/>
</g>
<defs>
<clipPath id="clip0_1078_2388">
<rect width="88" height="88" fill="white" transform="matrix(-1 0 0 1 88 0)"/>
</clipPath>
</defs>
</svg>
