<svg width="88" height="88" viewBox="0 0 88 88" fill="none" xmlns="http://www.w3.org/2000/svg">
<g clip-path="url(#clip0_363_1068)">
<path d="M81.3218 50.0965H59.099V33.0463H81.3218V50.0965Z" fill="#E2E8FF"/>
<path d="M81.3218 37.3717H59.099V33.0463H81.3218V37.3717Z" fill="#B2B2B2"/>
<path d="M70.8042 50.0988H69.4518V33.0463H70.8042V50.0988Z" fill="#AC1E23"/>
<path d="M81.3579 41.505H59.09V40.155H81.3579V41.505Z" fill="#AC1E23"/>
<path d="M70.0856 33.1105L76.5603 28.4457L78.3716 31.0675L70.0856 33.1105Z" fill="#AC1E23"/>
<path d="M63.503 29.6083L70.0859 33.1105L61.9725 31.9477L63.503 29.6083Z" fill="#AC1E23"/>
<path d="M70.0859 33.1104L66.7313 29.4634H69.112L70.0859 33.1104Z" fill="#AC1E23"/>
<path d="M67.4522 56.1754L79.4844 51.2473L78.8764 49.7571L66.8441 54.6828L67.4522 56.1754Z" fill="#AC1E23"/>
<path d="M79.5488 51.2401H63.2129V49.7454H79.5488V51.2401Z" fill="#AC1E23"/>
<path d="M47.8613 71.2825H30.4362V67.5669H47.8613V71.2825Z" fill="#231F20"/>
<path d="M72.2987 61.1581H77.1064C78.0365 61.1581 78.8018 60.3965 78.8018 59.4615V59.0771C78.8018 58.1423 78.0365 57.3784 77.1064 57.3784H72.2987C71.366 57.3784 70.6008 58.1423 70.6008 59.0771V59.4615C70.6008 60.3965 71.366 61.1581 72.2987 61.1581Z" fill="#E31E22"/>
<path d="M72.3351 57.0912H75.3341L76.8955 61.4475H72.3351C71.137 61.4475 70.1529 60.4677 70.1529 59.2694C70.1529 58.0713 71.137 57.0912 72.3351 57.0912Z" fill="#AC1E23"/>
<path d="M73.18 63.9437H77.3978C78.029 63.9437 78.5469 63.4265 78.5469 62.7953V62.5343C78.5469 61.9031 78.029 61.386 77.3978 61.386H73.18C72.5488 61.386 72.0335 61.9031 72.0335 62.5343V62.7953C72.0335 63.4265 72.5488 63.9437 73.18 63.9437Z" fill="#FBAD50"/>
<path d="M73.4092 61.1914H75.7899L77.0317 64.1382H73.4092C72.4559 64.1382 71.6778 63.4763 71.6778 62.6647C71.6778 61.8534 72.4559 61.1914 73.4092 61.1914Z" fill="#AC1E23"/>
<path d="M23.1577 43.4007L23.2737 43.1018C23.8972 41.4743 25.7419 40.6532 27.3703 41.2795L27.6743 41.396L25.3555 47.6432L24.9819 47.4984C23.351 46.8744 22.5342 45.0308 23.1577 43.4007Z" fill="#155F84"/>
<path d="M64.8377 54.7516C64.8377 54.7516 73.1648 56.0328 74.703 59.4281C76.2386 62.8258 73.9971 66.2213 73.9971 66.2213C73.9971 66.2213 48.5645 72.9479 46.4492 72.2432C44.3364 71.5385 47.0264 67.7588 46.0009 65.7729C44.978 63.787 43.3755 62.5058 42.7983 60.2611C42.2212 58.0188 43.3085 53.9047 43.3085 53.9047L64.7732 54.4955L64.8377 54.7516Z" fill="#AC1E23"/>
<path d="M54.1602 74.9006C54.1602 80.0139 58.3032 84.1591 63.415 84.1591C68.5267 84.1591 72.6724 80.0139 72.6724 74.9006C72.6724 69.7875 68.5267 65.6448 63.415 65.6448C58.3032 65.6448 54.1602 69.7875 54.1602 74.9006Z" fill="#231F20"/>
<path d="M58.3286 74.9006C58.3286 77.71 60.6088 79.9855 63.4147 79.9855C66.223 79.9855 68.498 77.71 68.498 74.9006C68.498 72.0938 66.223 69.816 63.4147 69.816C60.6088 69.816 58.3286 72.0938 58.3286 74.9006Z" fill="#95979A"/>
<path d="M61.2384 74.9007C61.2384 76.1037 62.2123 77.0812 63.4155 77.0812C64.6213 77.0812 65.5952 76.1037 65.5952 74.9007C65.5952 73.6978 64.6213 72.7225 63.4155 72.7225C62.2123 72.7225 61.2384 73.6978 61.2384 74.9007Z" fill="#664624"/>
<path d="M8.26541 74.9006C8.26541 80.0139 12.411 84.1591 17.5254 84.1591C22.6371 84.1591 26.7827 80.0139 26.7827 74.9006C26.7827 69.7875 22.6371 65.6448 17.5254 65.6448C12.411 65.6448 8.26541 69.7875 8.26541 74.9006Z" fill="#231F20"/>
<path d="M12.4395 74.9006C12.4395 77.71 14.7145 79.9855 17.5255 79.9855C20.3313 79.9855 22.6089 77.71 22.6089 74.9006C22.6089 72.0938 20.3313 69.816 17.5255 69.816C14.7145 69.816 12.4395 72.0938 12.4395 74.9006Z" fill="#95979A"/>
<path d="M15.3427 74.9007C15.3427 76.1037 16.3218 77.0812 17.525 77.0812C18.7282 77.0812 19.7021 76.1037 19.7021 74.9007C19.7021 73.6978 18.7282 72.7225 17.525 72.7225C16.3218 72.7225 15.3427 73.6978 15.3427 74.9007Z" fill="#664624"/>
<path d="M52.0894 72.7558H28.1298V70.5137H52.0894V72.7558Z" fill="#AC1E23"/>
<path d="M49.3243 73.9967C49.3191 73.8591 49.3114 73.7216 49.3114 73.5839C49.3114 65.7872 55.6315 59.4688 63.428 59.4688C71.2219 59.4688 77.542 65.7872 77.542 73.5839C77.542 73.7216 77.5343 73.8591 77.5291 73.9967H49.3243Z" fill="#E31E22"/>
<path d="M33.9116 38.8523L30.7065 37.6993C30.7065 37.6993 23.7061 44.5018 20.8231 51.869C17.9399 59.2362 18.7722 63.3388 20.4392 67.0543C22.3226 71.254 24.5383 71.0262 24.5383 71.0262L33.1258 70.8981C33.1258 70.8981 27.6791 64.3637 27.4884 56.2895C27.2823 47.7381 33.9116 38.8523 33.9116 38.8523Z" fill="#AC1E23"/>
<path d="M6.6423 70.0889C6.75307 69.7615 6.87931 69.4317 7.02358 69.1089C9.62841 63.2484 16.4922 60.6075 22.3537 63.2129C26.9321 65.2486 29.5447 69.8872 29.2252 74.6137L6.6423 70.0889Z" fill="#E31E22"/>
<path d="M33.1904 33.3478H35.8262C36.9315 33.3478 37.8384 32.4414 37.8384 31.3332V30.8777C37.8384 29.7696 36.9315 28.8634 35.8262 28.8634H33.1904C32.0799 28.8634 31.1756 29.7696 31.1756 30.8777V31.3332C31.1756 32.4414 32.0799 33.3478 33.1904 33.3478Z" fill="#231F20"/>
<path d="M31.0957 39.2059L32.0206 38.7645C32.018 38.755 31.4538 37.5047 31.7475 35.3383C32.0412 33.1555 33.1671 31.6939 33.18 31.6771L32.3736 31.0438C32.3195 31.1126 31.0647 32.7284 30.7298 35.2007C30.3948 37.6943 31.0673 39.1464 31.0957 39.2059ZM69.001 49.705V50.9294C69.001 53.366 67.7565 55.3592 66.239 55.3592H44.0837C42.5662 55.3592 41.3243 53.366 41.3243 50.9294V49.705H69.001Z" fill="#231F20"/>
<path d="M47.1676 23.1046L46.7785 21.325L51.2513 18.8766L51.6455 20.2787L47.1676 23.1046Z" fill="#155F84"/>
<path d="M49.5202 28.6023C45.2407 29.5726 47.5518 24.5402 47.5337 21.3559L46.6732 14.9046L48.3917 14.2023C48.3917 14.2023 49.4275 15.8987 50.7801 16.8692C51.1511 18.376 51.5608 20.0059 51.7128 20.4188C51.6278 21.2635 53.7997 27.6294 49.5202 28.6023Z" fill="#664624"/>
<path d="M43.2336 9.98136C42.7157 11.806 43.7308 12.9899 43.2748 13.8107C42.8187 14.6319 42.574 14.5845 42.5791 14.8975C42.5869 15.2131 43.1614 15.2487 43.2413 15.6664C43.3418 16.1716 43.5968 16.9095 43.6818 17.4387C43.7901 18.0936 43.6896 18.5324 44.2487 18.746C45.2793 19.1423 46.8175 18.3047 47.6935 17.8327C48.9353 17.161 49.9608 15.4267 49.9454 14.2284C50.8393 13.8535 53.7611 11.4618 51.7411 8.95869C49.7212 6.45537 44.2049 6.55511 43.2336 9.98136Z" fill="#815932"/>
<path d="M43.2335 9.98133C43.5632 9.70846 46.3124 9.19596 46.9436 10.6218C47.4692 11.8106 47.178 12.4132 48.7085 12.8951C49.4686 11.7204 50.463 13.0421 49.8112 13.5853C49.6695 13.7064 49.8061 14.098 49.8061 14.098L49.5072 15.8039L50.7645 16.8716C50.7645 16.8716 53.5214 15.5429 53.3075 12.1617C53.0911 8.71911 51.2773 6.84934 49.1233 6.86608C45.274 6.8944 43.6225 8.47946 43.2335 9.98133Z" fill="black"/>
<path d="M43.1998 9.87693C43.0504 9.29796 43.375 6.46722 44.403 5.6226C45.4337 4.77549 47.8272 4.1919 48.7006 4.27973C49.574 4.36501 51.8594 5.43503 52.7045 6.503C53.5135 7.52303 53.1322 10.062 53.0652 10.7784C49.1824 11.0657 46.7193 10.8212 43.1998 9.87693Z" fill="#1E7DAC"/>
<path d="M47.5649 10.7478C47.5649 10.7478 45.4986 11.1296 41.9172 11.3504C39.2249 11.5141 38.6245 9.69425 38.6245 9.69425L43.1901 8.81384C43.1901 8.81384 43.4142 9.16508 44.5891 9.75587C45.7692 10.3467 47.5649 10.7478 47.5649 10.7478Z" fill="#18658C"/>
<path d="M43.7434 13.5355C43.7975 13.7823 44.0422 13.939 44.2896 13.8844C44.5318 13.8297 44.689 13.5878 44.6348 13.341C44.5833 13.0941 44.3385 12.9378 44.0912 12.9921C43.8439 13.0467 43.6893 13.291 43.7434 13.5355Z" fill="black"/>
<path d="M43.6382 17.2205C43.5429 16.8716 43.4295 16.492 43.3548 16.1313L44.7178 15.9915C44.7178 15.9915 44.2901 16.8598 43.6382 17.2205Z" fill="white"/>
<path d="M48.7192 13.5712C48.9176 14.2666 49.4278 14.7268 49.8554 14.6033C50.2831 14.4799 50.4661 13.818 50.2625 13.1229C50.0615 12.4298 49.554 11.9673 49.1263 12.0907C48.6986 12.2142 48.5182 12.8784 48.7192 13.5712Z" fill="#815932"/>
<path d="M43.3087 12.6363L45.1328 12.4297L45.1199 12.3302C45.0787 12.0739 44.785 11.9079 44.4629 11.9576L43.1902 12.0669L43.3087 12.6363Z" fill="black"/>
<path d="M48.5458 4.33187L49.3343 4.49087C49.4708 4.51945 49.5996 4.43161 49.628 4.29864C49.6563 4.16365 49.5687 4.03297 49.4348 4.00439L48.6412 3.84566C48.5097 3.81944 48.3758 3.90498 48.35 4.04025C48.3217 4.17293 48.4093 4.30584 48.5458 4.33187Z" fill="#1E7DAC"/>
<path d="M52.1122 11.7586C52.1792 12.2638 52.6481 12.6151 53.1532 12.5462C53.6556 12.4749 54.0085 12.0101 53.9415 11.5046C53.8694 10.9993 53.4056 10.6479 52.8981 10.7169C52.3931 10.7881 52.0427 11.2531 52.1122 11.7586Z" fill="black"/>
<path d="M52.2225 13.3387C52.2946 13.844 52.7584 14.1975 53.2634 14.1264C53.7684 14.0575 54.1213 13.5902 54.0518 13.0873C53.9797 12.5818 53.5159 12.2283 53.0109 12.2994C52.5085 12.3682 52.1529 12.8355 52.2225 13.3387Z" fill="black"/>
<path d="M51.6382 14.7576C51.7052 15.2605 52.1741 15.614 52.6765 15.5452C53.1815 15.4741 53.5344 15.009 53.4649 14.5035C53.3953 13.9982 52.929 13.6471 52.424 13.7159C51.919 13.7847 51.566 14.2521 51.6382 14.7576Z" fill="black"/>
<path d="M50.6488 15.9105C50.7183 16.4138 51.1847 16.7673 51.6897 16.6985C52.1947 16.6274 52.5476 16.162 52.4781 15.6568C52.4085 15.1513 51.9396 14.8001 51.4346 14.8691C50.9322 14.9377 50.5792 15.4053 50.6488 15.9105Z" fill="black"/>
<path d="M49.4017 16.3448C49.4738 16.848 49.9376 17.2015 50.4426 17.1304C50.9502 17.0616 51.3005 16.5966 51.231 16.091C51.1588 15.5858 50.695 15.2323 50.1901 15.3034C49.685 15.3722 49.3321 15.8396 49.4017 16.3448Z" fill="black"/>
<path d="M46.8016 24.1534L47.9301 22.3977L52.0293 20.0297C52.0293 20.0297 53.2274 21.4913 53.5572 24.3623C53.7736 26.2485 57.0586 40.6034 57.0586 40.6034L48.7727 41.5715C48.7727 41.5715 46.8506 34.3869 46.2013 31.4471C45.8663 29.9381 46.8016 24.1534 46.8016 24.1534Z" fill="#1E7DAC"/>
<path d="M47.9479 22.8605L47.5537 21.0786L52.0291 18.6322L52.4233 20.0346L47.9479 22.8605Z" fill="#155F84"/>
<path d="M46.8016 24.1533L47.5771 21.1829L47.876 22.5448L46.8016 24.1533Z" fill="#0F5070"/>
<path d="M57.8399 41.8727C57.8399 41.8727 59.7129 45.8328 58.4736 48.0276C56.6907 51.1761 42.5175 51.3469 42.5175 51.3469L42.0562 66.8408L37.7613 66.6865L36.0736 46.4379L49.0077 43.2253L57.8399 41.8727Z" fill="#132E42"/>
<path d="M48.698 41.524L57.1025 40.5916C57.1025 40.5916 57.3678 41.0139 57.5508 41.339C57.7363 41.6662 58.0352 42.2405 58.0352 42.2405L49.0123 43.2443L48.698 41.524Z" fill="#664624"/>
<path d="M53.9411 42.6961L54.562 42.6273L54.3688 40.8951L53.7479 40.9641L53.9411 42.6961Z" fill="#132E42"/>
<path d="M36.957 40.2048L35.7486 38.8238L44.0887 34.3941C44.0887 34.3941 48.9505 22.7252 49.5483 22.6442C49.5483 22.6442 51.04 22.3881 51.6971 23.6931C52.354 24.9981 46.5054 36.8119 46.5054 36.8119L36.957 40.2048Z" fill="#815932"/>
<path d="M50.708 29.2951C50.2597 29.2286 49.2831 29.0078 48.7009 28.7777C47.7708 28.4147 47.0082 27.7479 46.7608 27.3707L48.1856 24.3456C49.0281 22.4591 50.0329 22.21 50.9888 22.5424C51.9447 22.8768 52.3595 23.3135 52.1405 24.7584C51.9215 26.2033 50.708 29.2951 50.708 29.2951Z" fill="#155F84"/>
<path d="M49.1208 27.7361C49.6644 27.9402 50.5173 28.1466 51.0635 28.2512C50.8599 28.8657 50.708 29.2951 50.708 29.2951C50.2596 29.2287 49.2831 29.0079 48.7008 28.7778C47.7707 28.4148 47.0081 27.748 46.7607 27.3708L47.1936 26.4502C47.5053 26.8014 48.2732 27.4182 49.1208 27.7361Z" fill="white"/>
<path d="M49.6877 43.1801L50.2339 43.1183C49.9994 43.3367 49.7624 43.5952 49.5665 43.8871C48.8142 44.9953 49.0925 45.6621 49.1517 45.8424L52.9443 42.8099L53.5215 42.7434L48.8786 46.6063C48.8786 46.6063 48.7781 46.471 48.706 46.3263C48.6364 46.1838 48.2809 45.1398 49.2085 43.7732C49.3578 43.5573 49.5202 43.3604 49.6877 43.1801Z" fill="#0A4F6F"/>
<path d="M42.4502 69.6001V67.1064H38.4644C38.4644 67.1064 35.352 66.862 34.9037 67.5928C34.646 68.0104 34.744 69.6001 34.744 69.6001H42.4502Z" fill="#664624"/>
<path d="M42.4609 69.5884H34.7213V68.9548H42.4609V69.5884Z" fill="#9D764B"/>
<path d="M42.5864 64.29H37.4025L37.2453 67.1111H42.4601L42.5864 64.29Z" fill="#0A4F6F"/>
<path d="M36.978 40.2049C36.978 40.2049 35.7362 41.4053 35.074 40.6081C34.1903 39.543 33.4766 38.7742 32.8711 39.4858C31.4902 41.1114 31.3767 40.4208 31.3767 40.4208C31.3767 40.4208 31.7014 38.2592 33.5436 38.0577C34.8602 37.9129 36.2798 38.895 36.2798 38.895L36.978 40.2049Z" fill="#815932"/>
<path d="M31.6624 40.8384C31.6624 41.759 32.4097 42.5062 33.3321 42.5062C34.2544 42.5062 34.999 41.759 34.999 40.8384C34.999 39.9152 34.2544 39.1702 33.3321 39.1702C32.4097 39.1702 31.6624 39.9152 31.6624 40.8384Z" fill="#231F20"/>
</g>
<defs>
<clipPath id="clip0_363_1068">
<rect width="88" height="88" fill="white" transform="matrix(-1 0 0 1 88 0)"/>
</clipPath>
</defs>
</svg>
