<svg width="113" height="86" viewBox="0 0 113 86" fill="none" xmlns="http://www.w3.org/2000/svg">
<path d="M11.4843 83.0829C11.4843 83.0829 -6.60626 61.9413 19.1173 55.1488C44.8409 48.3564 51.6189 42.5443 63.7798 24.9436C75.9406 7.34287 128.264 12.0503 106.98 83.8988L11.4843 83.0829Z" fill="#E2EEFC"/>
<path d="M18.6197 41.7145C35.4826 42.1215 52.244 32.8502 60.8603 18.3497C62.5239 15.5497 61.8617 11.5903 59.3775 9.48425C56.8932 7.37819 52.8786 7.37279 50.3889 9.47284C46.2674 12.9483 40.8024 14.3183 35.5 15.2837C30.1976 16.2491 24.726 16.9503 19.9309 19.4142C15.1358 21.878 11.0552 26.6005 11.1303 31.9911C11.2053 37.3817 16.7766 41.6701 18.6197 41.7145Z" fill="#E2EEFC"/>
<path d="M105.26 58.7156H85.5686V82.3391H105.26V58.7156Z" fill="#CCDEFF"/>
<path d="M91.6663 59.9523H86.804V60.8527H91.6663V59.9523Z" fill="#E2EEFC"/>
<path d="M97.55 59.9523H92.6877V60.8527H97.55V59.9523Z" fill="#E2EEFC"/>
<path d="M103.313 59.9523H98.4511V60.8527H103.313V59.9523Z" fill="#E2EEFC"/>
<path d="M91.7264 61.5732H86.8642V62.4737H91.7264V61.5732Z" fill="#E2EEFC"/>
<path d="M97.6098 61.5732H92.7475V62.4737H97.6098V61.5732Z" fill="#E2EEFC"/>
<path d="M103.373 61.5732H98.5109V62.4737H103.373V61.5732Z" fill="#E2EEFC"/>
<path d="M91.7264 63.1942H86.8642V64.0946H91.7264V63.1942Z" fill="#E2EEFC"/>
<path d="M97.6098 63.1942H92.7475V64.0946H97.6098V63.1942Z" fill="#E2EEFC"/>
<path d="M103.373 63.1942H98.5109V64.0946H103.373V63.1942Z" fill="#E2EEFC"/>
<path d="M91.7862 64.8152H86.924V65.7156H91.7862V64.8152Z" fill="#E2EEFC"/>
<path d="M97.6699 64.8152H92.8077V65.7156H97.6699V64.8152Z" fill="#E2EEFC"/>
<path d="M103.433 64.8152H98.5711V65.7156H103.433V64.8152Z" fill="#E2EEFC"/>
<path d="M91.8464 66.436H86.9841V67.3365H91.8464V66.436Z" fill="#E2EEFC"/>
<path d="M97.7301 66.436H92.8678V67.3365H97.7301V66.436Z" fill="#E2EEFC"/>
<path d="M103.494 66.436H98.6312V67.3365H103.494V66.436Z" fill="#E2EEFC"/>
<path d="M91.8464 68.0571H86.9841V68.9575H91.8464V68.0571Z" fill="#E2EEFC"/>
<path d="M97.7301 68.0571H92.8678V68.9575H97.7301V68.0571Z" fill="#E2EEFC"/>
<path d="M103.494 68.0571H98.6312V68.9575H103.494V68.0571Z" fill="#E2EEFC"/>
<path d="M103.494 70.5276H86.9841V76.5312H103.494V70.5276Z" fill="#E2EEFC"/>
<path d="M105.702 53.3933H99.5779V82.3396H105.702V53.3933Z" fill="#CCDEFF"/>
<path d="M106.924 56.0433H105.123V82.339H106.924V56.0433Z" fill="#CCDEFF"/>
<path d="M26.0677 67.1505H16.5821V82.3996H26.0677V67.1505Z" fill="#CCDEFF"/>
<path d="M24.6301 68.6569H17.5769V70.0375H24.6301V68.6569Z" fill="#E2EEFC"/>
<path d="M24.6301 70.9628H17.5769V72.3434H24.6301V70.9628Z" fill="#E2EEFC"/>
<path d="M24.6334 73.2687H17.5801V74.6493H24.6334V73.2687Z" fill="#E2EEFC"/>
<path d="M24.6334 75.5286H17.5801V76.9092H24.6334V75.5286Z" fill="#E2EEFC"/>
<path d="M32.9778 62.2876H23.4921V82.3996H32.9778V62.2876Z" fill="#CCDEFF"/>
<path d="M53.2765 66.25H32.0772V82.3996H53.2765V66.25Z" fill="#CCDEFF"/>
<path d="M16.582 73.4543H11.2988V82.3997H16.582V73.4543Z" fill="#CCDEFF"/>
<path d="M35.7778 58.6771H35.5977V66.25H35.7778V58.6771Z" fill="#CCDEFF"/>
<path d="M37.7997 60.4205H37.6196V66.2492H37.7997V60.4205Z" fill="#CCDEFF"/>
<path d="M34.1816 57.4686H33.7614V66.2501H34.1816V57.4686Z" fill="#CCDEFF"/>
<path d="M19.4369 64.9646H17.6961V67.1502H19.4369V64.9646Z" fill="#CCDEFF"/>
<path d="M27.9947 59.9258H24.213V62.2873H27.9947V59.9258Z" fill="#CCDEFF"/>
<path d="M31.3032 57.4686H29.6824V62.2871H31.3032V57.4686Z" fill="#CCDEFF"/>
<path d="M21.8277 61.8595H20.387V67.1504H21.8277V61.8595Z" fill="#CCDEFF"/>
<path d="M13.3698 74.3248H11.9592V75.7355H13.3698V74.3248Z" fill="#E2EEFC"/>
<path d="M15.6813 74.3248H14.2706V75.7355H15.6813V74.3248Z" fill="#E2EEFC"/>
<path d="M13.3698 76.6962H11.9592V78.1068H13.3698V76.6962Z" fill="#E2EEFC"/>
<path d="M15.6813 76.6962H14.2706V78.1068H15.6813V76.6962Z" fill="#E2EEFC"/>
<path d="M13.3698 79.0676H11.9592V80.4783H13.3698V79.0676Z" fill="#E2EEFC"/>
<path d="M15.6813 79.0676H14.2706V80.4783H15.6813V79.0676Z" fill="#E2EEFC"/>
<path d="M25.1748 63.5658H24.6344V81.7567H25.1748V63.5658Z" fill="#E2EEFC"/>
<path d="M27.5764 63.5658H27.0361V81.7567H27.5764V63.5658Z" fill="#E2EEFC"/>
<path d="M29.7382 63.5658H29.1979V81.7567H29.7382V63.5658Z" fill="#E2EEFC"/>
<path d="M32.0196 63.5658H31.4793V81.7567H32.0196V63.5658Z" fill="#E2EEFC"/>
<path d="M85.5687 74.9875H75.8429V82.3906H85.5687V74.9875Z" fill="#CCDEFF"/>
<path d="M94.6965 80.5222H94.3363V80.8824H94.6965V80.5222Z" fill="#CCDEFF"/>
<path d="M45.9414 30.7502C43.6319 33.6814 40.6511 36.014 37.2506 37.5511C37.4854 38.3022 38.2983 38.7602 39.0847 38.7956C39.8712 38.8311 40.6319 38.5261 41.3337 38.1695C42.0355 37.8129 42.7145 37.3956 43.4722 37.1783C44.0911 36.9949 44.6596 36.6719 45.1339 36.2339C45.6081 35.796 45.9754 35.255 46.2074 34.6526C46.6595 33.4483 46.5088 32.0332 45.9414 30.7502Z" fill="#E44531"/>
<path d="M49.7741 25.7328C49.3353 26.2395 49.5808 27.3206 50.2009 27.3494C49.2969 27.2893 47.816 27.919 46.9882 28.5013C47.1322 28.3836 47.2383 28.2261 47.2933 28.0485C47.3483 27.8708 47.3497 27.6809 47.2974 27.5024C47.2765 27.4296 47.2449 27.3602 47.2037 27.2965C47.0895 27.1266 46.9197 27.0016 46.7235 26.943C46.5038 26.8726 46.2659 26.8859 46.0554 26.9802C46.3112 26.8389 46.5551 26.6771 46.7847 26.4964C47.3336 26.0655 47.7975 25.5362 48.1528 24.9356C48.3929 24.8156 48.651 24.7135 48.9205 24.6955C48.9961 24.6913 49.072 24.695 49.1468 24.7063C49.3406 24.7313 49.5195 24.8235 49.6523 24.9669C49.8299 25.171 49.9374 25.5437 49.7741 25.7328Z" fill="#FBB8A5"/>
<path d="M41.0894 81.7742L33.9701 80.8504C34.0123 80.4731 34.0807 80.0992 34.1748 79.7315C34.6046 79.6158 35.0308 79.4868 35.4534 79.3443C35.4694 79.5002 35.5205 79.6504 35.6029 79.7837C35.7355 79.9818 36.0171 80.1018 36.22 79.9782C36.1893 79.687 36.1599 79.3971 36.1293 79.1054C36.217 79.0736 36.3028 79.0406 36.3904 79.0063C36.3904 79.0514 36.3904 79.0964 36.3904 79.1408C36.3832 79.3059 36.3694 79.474 36.4132 79.6336C36.4571 79.7933 36.5735 79.944 36.7362 79.9764C36.8989 80.0088 37.0868 79.8701 37.0633 79.7069C37.0209 79.4011 36.9777 79.0954 36.9337 78.7896C37.0243 78.7524 37.1138 78.714 37.2026 78.6756C37.253 79.0486 37.3031 79.4219 37.3527 79.7957C37.5394 79.9158 37.8011 79.7453 37.8599 79.5316C37.8916 79.3873 37.8837 79.2371 37.8371 79.097C37.8179 79.0243 37.7933 78.9523 37.7705 78.8821C37.7675 78.8719 37.7633 78.8611 37.7603 78.8509C37.7152 78.7251 37.6886 78.5935 37.681 78.4601C37.7591 78.4247 37.8365 78.388 37.9133 78.3508C37.9277 78.3718 37.9434 78.3922 37.959 78.4109C38.3123 78.8763 38.8091 79.2123 39.3725 79.3671C39.936 79.5218 40.5348 79.4866 41.0762 79.2669C41.1488 79.2368 41.2209 79.2068 41.2899 79.1684C41.2263 80.013 41.1644 80.8576 41.0894 81.7742Z" fill="#F75C3D"/>
<path d="M41.0433 82.3172C38.6728 81.957 36.3011 81.6023 33.915 81.2907C33.9324 81.1436 33.951 80.996 33.9702 80.8507C36.3438 81.1593 38.7169 81.4672 41.0896 81.7745C41.0747 81.9522 41.0593 82.1331 41.0433 82.3172Z" fill="black"/>
<path d="M37.3503 79.7951C37.3003 79.4217 37.2503 79.0483 37.2003 78.675C37.3599 78.6047 37.5196 78.5333 37.6805 78.4595C37.688 78.5929 37.7147 78.7245 37.7597 78.8503C37.7597 78.8605 37.7669 78.8713 37.7699 78.8815C37.7927 78.9517 37.8174 79.0237 37.8366 79.0964C37.8832 79.2365 37.891 79.3867 37.8594 79.531C37.7987 79.7447 37.5376 79.9157 37.3503 79.7951ZM36.7356 79.9758C36.573 79.944 36.4571 79.7921 36.4127 79.633C36.3683 79.4739 36.3827 79.3053 36.3899 79.1402C36.3899 79.0958 36.3899 79.0507 36.3899 79.0057C36.57 78.9367 36.7501 78.8635 36.9301 78.7884C36.9742 79.0938 37.0174 79.3995 37.0598 79.7057C37.0844 79.8695 36.8959 80.007 36.7356 79.9758ZM36.22 79.9782C36.0171 80.1024 35.7356 79.9818 35.6029 79.7837C35.5203 79.6505 35.4692 79.5002 35.4535 79.3443C35.6796 79.2686 35.9049 79.1886 36.1294 79.1042C36.1594 79.3963 36.1896 79.6876 36.22 79.9782Z" fill="#E2E8FF"/>
<path d="M41.0742 79.2672C40.5328 79.4869 39.934 79.5221 39.3706 79.3674C38.8071 79.2126 38.3103 78.8766 37.957 78.4112C38.2442 77.7094 38.3967 76.9598 38.4066 76.2015C39.5381 76.5119 40.669 76.821 41.7591 77.1116C41.5318 77.8295 41.3035 78.548 41.0742 79.2672Z" fill="#FBB8A5"/>
<path d="M49.0627 24.8086C49.528 25.0295 49.7465 25.6586 49.5178 26.1202C49.6582 25.9527 49.4607 26.1652 49.552 26.3603C49.7921 25.694 50.5406 24.8596 50.7801 24.1921C50.913 23.8233 50.9255 23.4219 50.8161 23.0456C50.7066 22.6692 50.4807 22.3372 50.1708 22.0972C49.8609 21.8571 49.483 21.7215 49.0912 21.7096C48.6994 21.6977 48.3139 21.8103 47.9901 22.0311C47.3478 22.4687 45.6015 21.809 45.8188 22.5545C45.8855 22.7832 46.927 24.6093 47.1653 24.6129C47.4036 24.6165 48.3058 24.359 48.5423 24.3908C48.7788 24.4226 49.0261 24.6087 49.0627 24.8086Z" fill="#38385C"/>
<path d="M48.4517 25.3037C48.2901 26.1346 47.8888 26.9 47.2973 27.5055C47.2764 27.4327 47.2449 27.3633 47.2037 27.2996C47.0894 27.1297 46.9197 27.0047 46.7235 26.9461C46.5062 27.0129 46.2837 27.0613 46.0584 27.0907C46.0476 27.0601 46.0362 27.0307 46.0253 26.9995C46.0151 26.9707 46.0043 26.9395 45.9941 26.9137C46.2643 26.7834 46.529 26.6447 46.7853 26.5007C47.3033 26.2117 47.8029 25.8909 48.2812 25.5402C48.328 25.506 48.373 25.4724 48.4175 25.4382C48.4271 25.3896 48.4427 25.3451 48.4517 25.3037Z" fill="#F8856C"/>
<path d="M49.1519 24.6993L49.1453 24.7071C48.9424 24.9472 48.6711 25.1129 48.3919 25.2522C48.3691 25.3296 48.3229 25.4286 48.2785 25.5355C48.2313 25.6416 48.1972 25.7531 48.177 25.8674C47.9753 26.4227 47.5984 26.5704 47.0611 26.8081C46.9291 26.8681 46.821 26.9083 46.7214 26.9425C46.5041 27.0094 46.2816 27.0578 46.0562 27.0872C45.9104 27.1094 45.7363 27.1364 45.516 27.1743C44.7608 25.7834 44.639 23.9382 45.4278 22.5173C45.7279 21.977 46.6283 21.7279 47.3733 21.8882C46.8938 22.1908 46.3704 22.4171 45.8215 22.5593C46.0599 22.565 46.2936 22.6269 46.5035 22.74C46.7134 22.8531 46.8936 23.0142 47.0295 23.2102C47.1653 23.4061 47.253 23.6314 47.2853 23.8676C47.3176 24.1039 47.2936 24.3444 47.2154 24.5696C47.3258 24.3896 47.8703 24.4574 48.0276 24.2971C48.1986 24.1236 48.0702 24.1032 48.1542 23.9027C48.177 23.6626 48.5024 23.1686 48.8145 23.1986C49.1267 23.2286 49.3818 23.5138 49.4328 23.8253C49.4838 24.1368 49.3554 24.4586 49.1519 24.6993Z" fill="#FBB6A6"/>
<path d="M51.1085 23.7614C50.1683 22.7882 48.8127 22.3548 47.4847 22.4448H47.4823L47.3689 22.4544C45.9196 23.0584 44.1461 22.8825 42.8433 21.982C43.6082 21.9369 44.4745 21.8517 45.3414 21.7676C45.596 21.5875 45.8409 21.4074 46.0871 21.2273C46.1769 20.7564 46.3607 20.3084 46.6274 19.9101C48.1805 19.4641 49.9738 20.0242 50.9968 21.2747C51.1925 22.0889 51.2304 22.933 51.1085 23.7614Z" fill="#F75C3D"/>
<path d="M47.4817 22.4453L47.3683 22.4549C45.9192 23.0588 44.146 22.8829 42.8433 21.9825C43.6081 21.9375 44.4743 21.8522 45.3411 21.7682C46.0038 22.5089 46.5759 22.4819 47.4817 22.4453Z" fill="#E44531"/>
<path d="M38.3063 41.5807H39.6378C39.6378 41.5807 39.9079 41.7824 39.3778 41.7824C39.0843 41.7863 38.7912 41.7565 38.5044 41.6935L38.3063 41.5807Z" fill="#F8856C"/>
<path d="M45.5181 24.34C45.6179 24.34 45.6988 24.1352 45.6988 23.8826C45.6988 23.63 45.6179 23.4252 45.5181 23.4252C45.4183 23.4252 45.3375 23.63 45.3375 23.8826C45.3375 24.1352 45.4183 24.34 45.5181 24.34Z" fill="#38385C"/>
<path d="M45.2639 25.5894C45.5687 25.5732 45.8656 25.4859 46.1307 25.3345C46.3957 25.183 46.6217 24.9716 46.7904 24.7172C46.8029 24.9057 46.7616 25.094 46.6712 25.26C46.5809 25.426 46.4453 25.5629 46.2802 25.6548C45.9482 25.8331 45.5124 25.7941 45.2639 25.5894Z" fill="#FEFEFE"/>
<path d="M45.4966 23.0926C45.5927 23.0254 45.705 22.985 45.8219 22.9756C45.9388 22.9662 46.0562 22.9882 46.1618 23.0391C46.2674 23.0901 46.3576 23.1683 46.423 23.2657C46.4883 23.3631 46.5266 23.4761 46.5338 23.5932C46.2591 23.3076 45.8911 23.1299 45.4966 23.0926Z" fill="#38385C"/>
<path d="M48.5817 23.6965C48.602 23.6483 48.6357 23.6069 48.6789 23.5774C48.722 23.5478 48.7728 23.5313 48.825 23.5298C48.8773 23.5283 48.9289 23.5418 48.9737 23.5688C49.0185 23.5958 49.0545 23.6351 49.0776 23.6821C49.1201 23.7687 49.1445 23.8632 49.1493 23.9596C49.1541 24.056 49.1392 24.1524 49.1054 24.2428C49.0717 24.3333 49.0199 24.4159 48.9532 24.4856C48.8865 24.5554 48.8063 24.6108 48.7174 24.6485C48.8313 24.5485 48.9231 24.4258 48.9869 24.2884C49.0182 24.2194 49.0337 24.1443 49.0323 24.0686C49.0308 23.9929 49.0125 23.9185 48.9785 23.8508C48.9407 23.7829 48.8804 23.7303 48.8079 23.7022C48.7355 23.674 48.6555 23.672 48.5817 23.6965Z" fill="#F8856C"/>
<path d="M42.6994 30.7502H23.4921V41.5831H42.6994V30.7502Z" fill="#FEBE3D"/>
<path d="M42.6994 40.8458H23.4921V41.5837H42.6994V40.8458Z" fill="#EC7F37"/>
<path d="M42.6995 41.0452V30.7502L43.6216 31.2497V41.0452H42.6995Z" fill="#EC7F37"/>
<path d="M41.3318 39.9585C40.374 39.9833 39.4566 40.3497 38.7452 40.9916C38.9253 41.1681 39.2218 41.1843 39.4608 41.099C39.6997 41.0138 39.8984 40.8433 40.0905 40.6788C40.0728 40.881 40.0025 41.0749 39.8867 41.2415C39.7708 41.4081 39.6135 41.5415 39.4301 41.6285C39.064 41.7984 38.6798 41.7065 38.2806 41.5847C38.6828 41.9238 39.2152 42.0078 39.7405 42.0409C40.2657 42.0739 40.7904 41.994 41.3108 41.9154C41.321 41.2437 41.3288 40.5744 41.3318 39.9585Z" fill="#FBB8A5"/>
<path d="M53.1395 44.9998C50.9564 45.3511 48.7464 45.508 46.5356 45.4687C45.6474 45.4543 44.7605 45.4072 43.8748 45.3276C43.9948 43.6818 44.1149 42.0362 44.235 40.3908C47.1299 40.1285 49.6382 37.5583 49.8315 34.658C49.9516 32.8479 51.1583 31.8225 52.9534 31.236C52.9534 31.3644 52.9534 31.4923 52.9576 31.619C53.0056 36.2694 53.0891 40.392 53.1395 44.9998Z" fill="#F75C3D"/>
<path d="M56.0548 44.4113C55.0918 44.6463 54.12 44.8424 53.1395 44.9997C50.9563 45.351 48.7464 45.5079 46.5355 45.4686C47.8977 40.5871 50.0212 35.9079 52.9593 31.6213C53.2019 31.2663 53.4502 30.9143 53.7044 30.5653C55.1276 35.0489 55.9187 39.7092 56.0548 44.4113ZM45.9592 29.5795C44.724 32.835 44.2119 36.3202 44.4583 39.7934C47.8593 37.5066 50.077 33.5448 50.2439 29.4462C50.2703 28.8116 49.7312 28.2455 49.1117 28.1032C48.4921 27.9609 47.8347 28.1776 47.3106 28.5409C46.7865 28.9041 46.3836 29.403 45.9592 29.5795Z" fill="#F75C3D"/>
<path d="M49.9808 27.3582C50.4808 27.2027 53.2007 29.2263 53.6425 30.3746C52.664 30.389 50.4868 30.3806 49.6248 30.8428C49.991 29.7887 49.4213 28.5017 48.3955 28.0605C48.9663 27.7964 49.5354 27.5317 49.9808 27.3582Z" fill="#E44531"/>
<path d="M41.0375 39.8595C42.7513 39.6507 44.3995 39.0729 45.8685 38.1659C46.649 37.6814 47.1485 36.8349 47.4295 35.9578C47.7104 35.0806 47.7993 34.1567 47.9542 33.2495C48.1091 32.3424 48.339 31.4239 48.8547 30.6632C49.3704 29.9025 50.2542 29.5573 51.1493 29.3424C52.3398 29.0554 54.1259 30.3294 53.8923 31.1795C52.1771 37.431 52.1447 37.5433 50.5826 39.9736C50.3856 40.2797 50.0578 40.4442 49.7198 40.5799C44.2956 42.755 42.4117 42.2651 42.2154 42.2009C41.9812 41.5225 41.3208 40.4623 41.0375 39.8595Z" fill="#E44531"/>
<path d="M40.6323 39.9752C40.9426 40.7628 41.1167 41.596 41.4265 42.3848C41.4733 42.3698 41.382 42.4004 41.4265 42.3848L42.3791 42.3535L41.6696 40.1631C41.6359 40.0656 41.5757 39.9794 41.4956 39.9144C41.4155 39.8493 41.3187 39.808 41.2164 39.7952C41.0093 39.7724 40.7938 39.8768 40.6323 39.9752Z" fill="#F75C3D"/>
<path d="M50.0472 26.6798L45.6448 28.7718C45.6628 29.2408 45.6806 29.7094 45.6982 30.1776L50.402 27.4001C50.2765 27.1648 50.1511 26.9247 50.0472 26.6798Z" fill="#463E52"/>
<path d="M46.0241 26.9961C46.0343 26.9901 46.0439 26.9859 46.0541 26.9805C46.0446 26.9868 46.0346 26.9922 46.0241 26.9967C46.0037 27.0093 45.9839 27.0195 45.9641 27.0309C45.9833 27.018 46.0034 27.0064 46.0241 26.9961Z" fill="#FFA8A8"/>
<path d="M45.4687 46.686L34.4996 76.6265L43.14 77.4154L49.263 65.3566L53.3202 47.024L45.4687 46.686Z" fill="#1A1A35"/>
<path d="M52.0938 77.595L63.9809 24.8007C64.0777 24.3703 64.3149 23.9842 64.655 23.7033C64.9952 23.4224 65.4191 23.2625 65.86 23.2487L91.3152 22.4527C91.6171 22.4425 91.9174 22.5013 92.1931 22.6246C92.4689 22.748 92.7129 22.9326 92.9065 23.1644C93.1002 23.3963 93.2384 23.6693 93.3106 23.9626C93.3829 24.2559 93.3872 24.5618 93.3234 24.8571L93.0599 26.0938L81.9046 78.3755C81.8097 78.8201 81.5654 79.2188 81.2124 79.5053C80.8594 79.7918 80.4189 79.9488 79.9642 79.9502L54.0408 80.0252C53.5685 80.0262 53.1113 79.8595 52.7504 79.5549C52.3896 79.2502 52.1486 78.8274 52.0704 78.3617C52.0288 78.107 52.0368 77.8467 52.0938 77.595ZM82.2858 23.295L74.7303 23.5075C74.6359 23.5109 74.5467 23.5513 74.4818 23.6199C74.4169 23.6885 74.3815 23.7799 74.3833 23.8743C74.3833 23.8791 74.3833 23.8839 74.3833 23.8887C74.3902 23.9807 74.4321 24.0664 74.5003 24.1284C74.5686 24.1904 74.658 24.2239 74.7501 24.2219L82.3056 24.0094C82.3565 24.0144 82.4079 24.0085 82.4563 23.992C82.5047 23.9756 82.5491 23.9491 82.5865 23.9142C82.6238 23.8793 82.6534 23.8369 82.6731 23.7897C82.6928 23.7425 82.7022 23.6917 82.7008 23.6406C82.6993 23.5895 82.687 23.5393 82.6646 23.4933C82.6422 23.4473 82.6103 23.4067 82.571 23.374C82.5317 23.3413 82.4859 23.3173 82.4366 23.3037C82.3874 23.2901 82.3357 23.2871 82.2852 23.295H82.2858ZM55.7074 76.6386L79.2492 76.5702C79.6621 76.569 80.0621 76.4264 80.3827 76.1662C80.7033 75.9061 80.9251 75.5439 81.0113 75.1401L91.3795 26.5417C91.472 26.108 91.4019 25.6554 91.1825 25.27C90.9631 24.8845 90.6097 24.5932 90.1895 24.4513C89.9857 24.3826 89.7711 24.3513 89.5562 24.3588L66.4424 25.0792C66.0419 25.0918 65.6571 25.2371 65.3482 25.4923C65.0394 25.7475 64.8241 26.098 64.7362 26.4889L62.9525 34.4136L62.9417 34.4598L53.9375 74.4347C53.8779 74.6997 53.8787 74.9747 53.94 75.2393C54.0013 75.5039 54.1214 75.7513 54.2915 75.9631C54.4615 76.1748 54.6772 76.3455 54.9223 76.4625C55.1674 76.5795 55.4358 76.6397 55.7074 76.6386Z" fill="#38385C"/>
<path d="M52.491 81.5357C52.5277 81.5895 52.5691 81.6399 52.6147 81.6864C52.8105 81.941 53.063 82.1466 53.3521 82.2867C53.6411 82.4269 53.9588 82.4978 54.2801 82.4939L81.2362 82.363C82.2099 82.3582 83.0516 81.6954 83.257 80.7703L94.8727 28.4616L95.2467 26.7758C95.2774 26.6378 95.2933 26.497 95.2942 26.3556C95.1621 25.9179 94.6266 25.1861 94.1024 24.5395C93.5273 23.8299 92.966 23.2235 92.966 23.2235L92.9606 23.2421C93.1342 23.4695 93.2563 23.7319 93.3185 24.0112C93.3807 24.2905 93.3815 24.5799 93.3208 24.8595L93.0572 26.0962L81.9044 78.3754C81.8095 78.8201 81.5652 79.2188 81.2121 79.5053C80.8591 79.7918 80.4187 79.9488 79.964 79.9502L54.0405 80.0252C53.5683 80.0262 53.111 79.8595 52.7502 79.5549C52.3893 79.2502 52.1483 78.8274 52.0701 78.3616C52.0701 78.3616 51.9195 80.7168 52.491 81.5357Z" fill="#1A1A35"/>
<path d="M55.7072 76.6387L79.249 76.5703C79.6619 76.5691 80.062 76.4265 80.3825 76.1663C80.7031 75.9061 80.925 75.544 81.0111 75.1402L91.3793 26.5418C91.4718 26.108 91.4017 25.6554 91.1823 25.27C90.9629 24.8846 90.6096 24.5932 90.1894 24.4513C89.9855 24.3827 89.771 24.3514 89.556 24.3589L66.4422 25.0793C66.0418 25.0919 65.6569 25.2372 65.348 25.4924C65.0392 25.7475 64.8239 26.0981 64.736 26.4889L62.9523 34.4137L62.9415 34.4599L53.9373 74.4348C53.8777 74.6997 53.8785 74.9748 53.9398 75.2394C54.0011 75.504 54.1212 75.7513 54.2913 75.9631C54.4614 76.1749 54.677 76.3456 54.9221 76.4626C55.1672 76.5795 55.4356 76.6397 55.7072 76.6387Z" fill="#E2EEFC"/>
<g opacity="0.64">
<path d="M79.7066 24.6668L89.5939 34.9053L90.0628 32.7056L82.2239 24.5875L79.7066 24.6668Z" fill="#E2E8FF"/>
<path d="M71.597 24.9202L88.0822 41.9919L89.2655 36.4446L77.9452 24.7214L71.597 24.9202Z" fill="#E2E8FF"/>
<path d="M59.8788 48.0453L81.921 70.8721L83.5246 63.3551L61.5544 40.6027L59.8788 48.0453Z" fill="#E2E8FF"/>
<path d="M58.4415 54.4308L79.7494 76.4976C80.0626 76.4062 80.3452 76.2318 80.5671 75.9928C80.7891 75.7538 80.9422 75.4592 81.0102 75.1401L81.0144 75.1209L58.9314 52.2521L58.4415 54.4308Z" fill="#E2E8FF"/>
<path d="M56.5675 62.7535L69.9357 76.5978L78.7736 76.572L58.2431 55.3103L56.5675 62.7535Z" fill="#E2E8FF"/>
<path d="M71.597 24.9202L88.0822 41.9919L89.2655 36.4446L77.9452 24.7214L71.597 24.9202Z" fill="#E2E8FF"/>
<path d="M79.7066 24.6668L89.5939 34.9053L90.0628 32.7056L82.2239 24.5875L79.7066 24.6668Z" fill="#E2E8FF"/>
<path d="M58.4415 54.4308L79.7494 76.4976C80.0626 76.4062 80.3452 76.2318 80.5671 75.9928C80.7891 75.7538 80.9422 75.4592 81.0102 75.1401L81.0144 75.1209L58.9314 52.2521L58.4415 54.4308Z" fill="#E2E8FF"/>
<path d="M56.5675 62.7535L69.9357 76.5978L78.7736 76.572L58.2431 55.3103L56.5675 62.7535Z" fill="#E2E8FF"/>
<path d="M59.8788 48.0453L81.921 70.8721L83.5246 63.3551L61.5544 40.6027L59.8788 48.0453Z" fill="#E2E8FF"/>
</g>
<path d="M74.3838 23.8905C74.3907 23.9825 74.4326 24.0682 74.5008 24.1302C74.5691 24.1922 74.6585 24.2257 74.7506 24.2237L82.3061 24.0112C82.357 24.0162 82.4084 24.0103 82.4568 23.9938C82.5052 23.9774 82.5496 23.9509 82.587 23.916C82.6243 23.8811 82.6539 23.8387 82.6736 23.7915C82.6933 23.7443 82.7027 23.6935 82.7013 23.6424C82.6998 23.5913 82.6875 23.5411 82.6651 23.4951C82.6427 23.4491 82.6108 23.4085 82.5715 23.3758C82.5322 23.3431 82.4864 23.3191 82.4371 23.3055C82.3879 23.2919 82.3362 23.2889 82.2857 23.2968L74.7302 23.5093C74.6358 23.5127 74.5466 23.5531 74.4817 23.6217C74.4168 23.6903 74.3814 23.7817 74.3832 23.8761C74.3831 23.8809 74.3833 23.8857 74.3838 23.8905Z" fill="#E2E8FF"/>
<path d="M65.4459 59.4725C66.3171 61.7008 67.1889 63.9292 68.0614 66.1578C67.71 66.3029 67.349 66.4232 66.9808 66.518C66.6723 66.1979 66.3542 65.8863 66.0264 65.5834C66.1554 65.4943 66.2626 65.3771 66.3397 65.2406C66.4496 65.0287 66.4196 64.7244 66.2131 64.6061C65.973 64.773 65.7329 64.9395 65.4928 65.1055C65.4225 65.0455 65.3523 64.9855 65.2803 64.9255C65.3193 64.9027 65.3595 64.8828 65.4003 64.8654C65.5486 64.7928 65.7005 64.7232 65.8205 64.6085C65.9406 64.4939 66.0156 64.3186 65.9652 64.1607C65.9148 64.0028 65.7035 63.9044 65.5714 64.004C65.3241 64.1885 65.077 64.3736 64.83 64.5593C64.7538 64.4993 64.6776 64.4392 64.6007 64.3792L65.5108 63.7087C65.527 63.4866 65.2508 63.3395 65.0353 63.3912C64.8936 63.4328 64.7658 63.512 64.6656 63.6205C64.6115 63.6727 64.5599 63.7285 64.5095 63.7825C64.5017 63.7903 64.4945 63.7987 64.4873 63.8065C64.3987 63.9066 64.2962 63.9933 64.183 64.0641C64.1145 64.013 64.0449 63.9626 63.9759 63.9128C63.9873 63.89 63.9975 63.8666 64.0077 63.8432C64.2457 63.3096 64.3014 62.7124 64.1659 62.1441C64.0305 61.5757 63.7116 61.0678 63.2585 60.6989C63.1985 60.6497 63.1343 60.6023 63.0694 60.5584C63.8366 60.2001 64.6061 59.8483 65.4459 59.4725Z" fill="#F75C3D"/>
<path d="M65.9447 59.2522C66.7719 61.502 67.5991 63.7543 68.4743 65.9951C68.3368 66.0504 68.1982 66.1056 68.0619 66.1584C67.1903 63.929 66.3185 61.7005 65.4465 59.4731C65.6098 59.4005 65.7754 59.3266 65.9447 59.2522Z" fill="black"/>
<path d="M65.5097 63.7031L64.5997 64.3737C64.4616 64.2674 64.3218 64.1618 64.1795 64.0585C64.2927 63.9876 64.3951 63.9008 64.4838 63.801C64.4916 63.7932 64.4988 63.7848 64.5061 63.777C64.5565 63.723 64.6081 63.6671 64.6621 63.6149C64.7625 63.5066 64.8903 63.4274 65.0319 63.3856C65.2528 63.334 65.5259 63.481 65.5097 63.7031ZM65.9647 64.1564C66.0145 64.3142 65.9377 64.4889 65.8201 64.6042C65.7024 64.7194 65.5475 64.7884 65.3999 64.8611C65.3602 64.8815 65.32 64.9013 65.2798 64.9211C65.1321 64.7955 64.9819 64.6722 64.829 64.5513C65.0757 64.3659 65.3236 64.1804 65.5703 63.9961C65.703 63.9006 65.9131 63.9997 65.9647 64.1564ZM66.2132 64.606C66.4197 64.726 66.4491 65.0262 66.3399 65.2405C66.2627 65.3769 66.1556 65.4941 66.0266 65.5832C65.8513 65.4231 65.673 65.2631 65.4917 65.103L66.2132 64.606Z" fill="#E2E8FF"/>
<path d="M63.2558 60.6925C63.7089 61.0614 64.0278 61.5693 64.1632 62.1377C64.2986 62.706 64.243 63.3032 64.0049 63.8368C63.2514 63.9228 62.5208 64.1496 61.8511 64.5055C61.5786 63.3649 61.3055 62.2244 61.036 61.1289L63.2558 60.6925Z" fill="#FBB8A5"/>
<path d="M47.7605 47.7775C47.7605 47.7775 38.907 62.55 44.853 67.0196C50.7989 71.4893 63.0384 65.5277 63.0384 65.5277L60.9432 60.1671C60.9432 60.1671 50.7371 64.2496 52.0687 59.2666C53.4003 54.2836 55.2998 46.9532 55.2998 46.9532L47.7605 47.7775Z" fill="#38385C"/>
<path d="M56.0495 47.4893C55.0994 47.6881 54.1364 47.8189 53.1677 47.8807C50.0394 48.5564 46.7958 48.4852 43.7001 47.673C43.7453 47.0566 43.7907 46.4399 43.8364 45.8227C43.8484 45.6578 43.8606 45.4927 43.873 45.3274C44.7579 45.4075 45.6448 45.4545 46.5338 45.4685C48.7446 45.5078 50.9546 45.3509 53.1377 44.9996C54.1167 44.8423 55.0885 44.6462 56.0531 44.4113C56.0839 45.4371 56.0827 46.4631 56.0495 47.4893Z" fill="#E44531"/>
<path d="M45.0425 23.5111C45.0965 23.9109 44.6824 24.3137 44.1607 24.3719C44.6709 24.6222 45.0209 25.0526 45.0875 25.5124C45.2364 24.8785 45.261 24.229 45.0425 23.5111Z" fill="#FBB6A6"/>
<path d="M49.0721 24.7633C49.307 25.2386 49.4621 25.7493 49.5313 26.2748L50.616 24.5112C50.1058 24.5995 49.5949 24.6877 49.0721 24.7633Z" fill="#38385C"/>
<path d="M45.3375 21.7788C45.5345 20.9978 46.0198 20.3204 46.6959 19.8826C46.7433 20.3611 46.6862 20.8443 46.5284 21.2986C46.454 21.5129 46.2061 21.6126 45.9809 21.6426C45.7558 21.6726 45.5175 21.6606 45.3375 21.7788Z" fill="#F75C3D"/>
<path d="M44.9176 67.6038L41.127 75.7086M60.2268 78.9608L60.2106 78.9938M50.0303 49.0071C48.9154 50.7271 47.791 52.4663 47.0999 54.3959C46.4089 56.3255 46.1796 58.4909 46.8802 60.4175C47.5808 62.344 49.3417 63.9524 51.3829 64.0899C55.4455 64.3637 57.4069 64.4957 61.1892 62.9876" stroke="#F2F2F2" stroke-width="0.0600359" stroke-linecap="round" stroke-linejoin="round" stroke-dasharray="0.36 0.18 0.36 0.18 0.36 0.18"/>
<path d="M81.6549 13.4053L80.1636 12.925C80.7639 11.1455 83.4007 10.4953 84.7563 11.7939C84.0449 10.9426 84.6363 9.39666 85.7343 9.23696C86.8324 9.07727 87.8356 10.3927 87.3979 11.4109C88.2474 10.4317 90.0845 10.6598 90.6681 11.8173C91.3687 10.9492 92.902 10.9768 93.572 11.8677C96.7236 11.2786 99.9778 11.5967 102.956 12.7851L76.3429 14.0771C78.2586 13.7264 80.1756 13.3758 81.6549 13.4053ZM35.9094 3.90578L37.3676 3.33424C36.6592 1.5932 33.984 1.11291 32.7131 2.49373C33.3692 1.5992 32.6818 0.0923008 31.576 0.0040481C30.4701 -0.0842046 29.5492 1.28942 30.0523 2.27941C29.1427 1.35545 27.3236 1.69946 26.8139 2.89117C26.0599 2.06868 24.5326 2.19175 23.919 3.12411C20.7371 2.73426 17.51 3.25644 14.6134 4.62981L41.2538 4.24258C39.3176 4.01264 37.3838 3.7833 35.9094 3.90578Z" fill="#E2EEFC"/>
<path d="M3.98397 84.1989C3.98397 83.7212 4.17373 83.2631 4.51149 82.9253C4.84926 82.5876 5.30737 82.3978 5.78505 82.3978H107.722C108.199 82.3978 108.658 82.5876 108.995 82.9253C109.333 83.2631 109.523 83.7212 109.523 84.1989C109.523 84.6766 109.333 85.1347 108.995 85.4725C108.658 85.8102 108.199 86 107.722 86H5.78505C5.30737 86 4.84926 85.8102 4.51149 85.4725C4.17373 85.1347 3.98397 84.6766 3.98397 84.1989Z" fill="#1A1A35"/>
<path d="M6.47807 17.188C6.47807 13.826 9.13106 11.104 12.4042 11.104C15.6774 11.104 18.3304 13.8278 18.3304 17.188C18.3304 20.5482 12.6468 26.6965 12.6468 26.6965C12.6468 26.6965 6.47807 20.5482 6.47807 17.188Z" fill="#F75C3D"/>
<path d="M12.4041 20.4052C14.1775 20.4052 15.615 18.9676 15.615 17.1943C15.615 15.421 14.1775 13.9834 12.4041 13.9834C10.6308 13.9834 9.19324 15.421 9.19324 17.1943C9.19324 18.9676 10.6308 20.4052 12.4041 20.4052Z" fill="#1A1A35"/>
<path d="M12.6466 26.6965L26.9874 24.9957L37.1497 9.82825L59.3942 12.9381L65.4872 37.7347L81.3475 41.7325L73.6851 54.6126" stroke="#F75C3D" stroke-width="0.480287" stroke-miterlimit="10"/>
<path d="M73.1623 57.7982C74.3061 57.7982 75.2333 56.871 75.2333 55.7272C75.2333 54.5835 74.3061 53.6562 73.1623 53.6562C72.0186 53.6562 71.0914 54.5835 71.0914 55.7272C71.0914 56.871 72.0186 57.7982 73.1623 57.7982Z" fill="#F75C3D"/>
<path d="M74.009 56.5742C74.4767 56.1065 74.4767 55.3483 74.009 54.8806C73.5414 54.4129 72.7831 54.4129 72.3154 54.8806C71.8478 55.3483 71.8478 56.1065 72.3154 56.5742C72.7831 57.0419 73.5414 57.0419 74.009 56.5742Z" fill="#F5F9FE"/>
<path d="M2.73043 48.1666C2.40564 47.1616 3.09905 45.9525 4.13107 45.7256C5.16308 45.4987 6.29956 46.3061 6.42624 47.3544C7.21271 45.9207 9.62915 45.8595 10.4877 47.2517C14.7437 46.8513 19.0367 47.1761 23.184 48.2123L0 48.5725C1.14068 48.2561 2.28256 47.9373 2.73043 48.1666Z" fill="#E2EEFC"/>
</svg>
