<svg width="113" height="86" viewBox="0 0 113 86" fill="none" xmlns="http://www.w3.org/2000/svg">
<path d="M11.4844 83.0829C11.4844 83.0829 -6.60617 61.9413 19.1174 55.1488C44.841 48.3564 51.619 42.5443 63.7799 24.9436C75.9407 7.34287 128.264 12.0503 106.98 83.8988L11.4844 83.0829Z" fill="#E2EEFC"/>
<path d="M18.6199 41.7145C35.4828 42.1215 52.2442 32.8502 60.8605 18.3497C62.5241 15.5497 61.8619 11.5903 59.3776 9.48425C56.8933 7.37819 52.8787 7.37279 50.3891 9.47284C46.2676 12.9483 40.8025 14.3183 35.5002 15.2837C30.1978 16.2491 24.7261 16.9503 19.9311 19.4142C15.136 21.878 11.0554 26.6005 11.1304 31.9911C11.2055 37.3817 16.7768 41.6701 18.6199 41.7145Z" fill="#E2EEFC"/>
<path d="M105.26 58.7156H85.5684V82.3391H105.26V58.7156Z" fill="#CCDEFF"/>
<path d="M91.6665 59.9523H86.8042V60.8527H91.6665V59.9523Z" fill="#E2EEFC"/>
<path d="M97.5498 59.9523H92.6875V60.8527H97.5498V59.9523Z" fill="#E2EEFC"/>
<path d="M103.313 59.9523H98.4512V60.8527H103.313V59.9523Z" fill="#E2EEFC"/>
<path d="M91.7265 61.5732H86.8643V62.4737H91.7265V61.5732Z" fill="#E2EEFC"/>
<path d="M97.6098 61.5732H92.7476V62.4737H97.6098V61.5732Z" fill="#E2EEFC"/>
<path d="M103.373 61.5732H98.5107V62.4737H103.373V61.5732Z" fill="#E2EEFC"/>
<path d="M91.7265 63.1942H86.8643V64.0946H91.7265V63.1942Z" fill="#E2EEFC"/>
<path d="M97.6098 63.1942H92.7476V64.0946H97.6098V63.1942Z" fill="#E2EEFC"/>
<path d="M103.373 63.1942H98.5107V64.0946H103.373V63.1942Z" fill="#E2EEFC"/>
<path d="M91.7861 64.8152H86.9238V65.7156H91.7861V64.8152Z" fill="#E2EEFC"/>
<path d="M97.6699 64.8152H92.8076V65.7156H97.6699V64.8152Z" fill="#E2EEFC"/>
<path d="M103.434 64.8152H98.5713V65.7156H103.434V64.8152Z" fill="#E2EEFC"/>
<path d="M91.8461 66.436H86.9839V67.3365H91.8461V66.436Z" fill="#E2EEFC"/>
<path d="M97.7299 66.436H92.8677V67.3365H97.7299V66.436Z" fill="#E2EEFC"/>
<path d="M103.494 66.436H98.6313V67.3365H103.494V66.436Z" fill="#E2EEFC"/>
<path d="M91.8461 68.0571H86.9839V68.9575H91.8461V68.0571Z" fill="#E2EEFC"/>
<path d="M97.7299 68.0571H92.8677V68.9575H97.7299V68.0571Z" fill="#E2EEFC"/>
<path d="M103.494 68.0571H98.6313V68.9575H103.494V68.0571Z" fill="#E2EEFC"/>
<path d="M103.494 70.5276H86.9839V76.5312H103.494V70.5276Z" fill="#E2EEFC"/>
<path d="M105.701 53.3933H99.5776V82.3396H105.701V53.3933Z" fill="#CCDEFF"/>
<path d="M106.924 56.0433H105.123V82.339H106.924V56.0433Z" fill="#CCDEFF"/>
<path d="M26.0677 67.1505H16.582V82.3996H26.0677V67.1505Z" fill="#CCDEFF"/>
<path d="M24.6299 68.6569H17.5767V70.0375H24.6299V68.6569Z" fill="#E2EEFC"/>
<path d="M24.6299 70.9628H17.5767V72.3434H24.6299V70.9628Z" fill="#E2EEFC"/>
<path d="M24.6334 73.2687H17.5801V74.6493H24.6334V73.2687Z" fill="#E2EEFC"/>
<path d="M24.6334 75.5286H17.5801V76.9092H24.6334V75.5286Z" fill="#E2EEFC"/>
<path d="M32.9779 62.2876H23.4922V82.3996H32.9779V62.2876Z" fill="#CCDEFF"/>
<path d="M53.2764 66.25H32.0771V82.3996H53.2764V66.25Z" fill="#CCDEFF"/>
<path d="M16.582 73.4543H11.2988V82.3997H16.582V73.4543Z" fill="#CCDEFF"/>
<path d="M35.7778 58.6771H35.5977V66.25H35.7778V58.6771Z" fill="#CCDEFF"/>
<path d="M37.7997 60.4205H37.6196V66.2492H37.7997V60.4205Z" fill="#CCDEFF"/>
<path d="M34.1815 57.4686H33.7612V66.2501H34.1815V57.4686Z" fill="#CCDEFF"/>
<path d="M19.4371 64.9646H17.6963V67.1502H19.4371V64.9646Z" fill="#CCDEFF"/>
<path d="M27.9946 59.9258H24.2129V62.2873H27.9946V59.9258Z" fill="#CCDEFF"/>
<path d="M31.3034 57.4686H29.6826V62.2871H31.3034V57.4686Z" fill="#CCDEFF"/>
<path d="M21.8279 61.8595H20.3872V67.1504H21.8279V61.8595Z" fill="#CCDEFF"/>
<path d="M13.3696 74.3248H11.959V75.7355H13.3696V74.3248Z" fill="#E2EEFC"/>
<path d="M15.6812 74.3248H14.2705V75.7355H15.6812V74.3248Z" fill="#E2EEFC"/>
<path d="M13.3696 76.6962H11.959V78.1068H13.3696V76.6962Z" fill="#E2EEFC"/>
<path d="M15.6812 76.6962H14.2705V78.1068H15.6812V76.6962Z" fill="#E2EEFC"/>
<path d="M13.3696 79.0676H11.959V80.4783H13.3696V79.0676Z" fill="#E2EEFC"/>
<path d="M15.6812 79.0676H14.2705V80.4783H15.6812V79.0676Z" fill="#E2EEFC"/>
<path d="M25.1746 63.5658H24.6343V81.7567H25.1746V63.5658Z" fill="#E2EEFC"/>
<path d="M27.5765 63.5658H27.0361V81.7567H27.5765V63.5658Z" fill="#E2EEFC"/>
<path d="M29.7381 63.5658H29.1978V81.7567H29.7381V63.5658Z" fill="#E2EEFC"/>
<path d="M32.0198 63.5658H31.4795V81.7567H32.0198V63.5658Z" fill="#E2EEFC"/>
<path d="M85.5686 74.9875H75.8428V82.3906H85.5686V74.9875Z" fill="#CCDEFF"/>
<path d="M94.6966 80.5222H94.3364V80.8824H94.6966V80.5222Z" fill="#CCDEFF"/>
<path d="M45.9413 30.7502C43.6317 33.6814 40.6509 36.014 37.2505 37.5511C37.4852 38.3022 38.2981 38.7602 39.0846 38.7956C39.8711 38.8311 40.6317 38.5261 41.3335 38.1695C42.0353 37.8129 42.7144 37.3956 43.472 37.1783C44.0909 36.9949 44.6595 36.6719 45.1337 36.2339C45.608 35.796 45.9753 35.255 46.2072 34.6526C46.6593 33.4483 46.5086 32.0332 45.9413 30.7502Z" fill="#E44531"/>
<path d="M49.7739 25.7328C49.3351 26.2395 49.5806 27.3206 50.2007 27.3494C49.2967 27.2893 47.8158 27.919 46.988 28.5013C47.132 28.3836 47.2381 28.2261 47.2931 28.0485C47.3481 27.8708 47.3495 27.6809 47.2972 27.5024C47.2763 27.4296 47.2447 27.3602 47.2035 27.2965C47.0892 27.1266 46.9195 27.0016 46.7233 26.943C46.5036 26.8726 46.2657 26.8859 46.0552 26.9802C46.311 26.8389 46.5549 26.6771 46.7845 26.4964C47.3334 26.0655 47.7973 25.5362 48.1525 24.9356C48.3927 24.8156 48.6508 24.7135 48.9203 24.6955C48.9959 24.6913 49.0717 24.695 49.1466 24.7063C49.3404 24.7313 49.5193 24.8235 49.652 24.9669C49.8297 25.171 49.9372 25.5437 49.7739 25.7328Z" fill="#FBB8A5"/>
<path d="M41.0895 81.7742L33.9702 80.8504C34.0124 80.4731 34.0808 80.0992 34.1749 79.7315C34.6047 79.6158 35.0309 79.4868 35.4535 79.3443C35.4695 79.5002 35.5206 79.6504 35.603 79.7837C35.7356 79.9818 36.0172 80.1018 36.2201 79.9782C36.1894 79.687 36.16 79.3971 36.1294 79.1054C36.2171 79.0736 36.3029 79.0406 36.3905 79.0063C36.3905 79.0514 36.3905 79.0964 36.3905 79.1408C36.3833 79.3059 36.3695 79.474 36.4133 79.6336C36.4572 79.7933 36.5736 79.944 36.7363 79.9764C36.899 80.0088 37.0869 79.8701 37.0635 79.7069C37.021 79.4011 36.9778 79.0954 36.9338 78.7896C37.0244 78.7524 37.1139 78.714 37.2027 78.6756C37.2531 79.0486 37.3032 79.4219 37.3528 79.7957C37.5395 79.9158 37.8012 79.7453 37.86 79.5316C37.8917 79.3873 37.8838 79.2371 37.8372 79.097C37.818 79.0243 37.7934 78.9523 37.7706 78.8821C37.7676 78.8719 37.7634 78.8611 37.7604 78.8509C37.7154 78.7251 37.6887 78.5935 37.6811 78.4601C37.7592 78.4247 37.8366 78.388 37.9134 78.3508C37.9279 78.3718 37.9435 78.3922 37.9591 78.4109C38.3124 78.8763 38.8092 79.2123 39.3726 79.3671C39.9361 79.5218 40.5349 79.4866 41.0763 79.2669C41.1489 79.2368 41.221 79.2068 41.29 79.1684C41.2264 80.013 41.1646 80.8576 41.0895 81.7742Z" fill="#F75C3D"/>
<path d="M41.0433 82.3172C38.6728 81.957 36.3011 81.6023 33.915 81.2907C33.9324 81.1436 33.9511 80.996 33.9703 80.8507C36.3438 81.1593 38.7169 81.4672 41.0896 81.7745C41.0748 81.9522 41.0594 82.1331 41.0433 82.3172Z" fill="black"/>
<path d="M37.3505 79.7951C37.3005 79.4217 37.2504 79.0483 37.2004 78.675C37.3601 78.6047 37.5198 78.5333 37.6806 78.4595C37.6882 78.5929 37.7149 78.7245 37.7599 78.8503C37.7599 78.8605 37.7671 78.8713 37.7701 78.8815C37.7929 78.9517 37.8175 79.0237 37.8367 79.0964C37.8833 79.2365 37.8912 79.3867 37.8595 79.531C37.7989 79.7447 37.5378 79.9157 37.3505 79.7951ZM36.7358 79.9758C36.5731 79.944 36.4573 79.7921 36.4129 79.633C36.3684 79.4739 36.3828 79.3053 36.39 79.1402C36.39 79.0958 36.39 79.0507 36.39 79.0057C36.5701 78.9367 36.7502 78.8635 36.9303 78.7884C36.9743 79.0938 37.0175 79.3995 37.06 79.7057C37.0846 79.8695 36.8961 80.007 36.7358 79.9758ZM36.2202 79.9782C36.0173 80.1024 35.7357 79.9818 35.6031 79.7837C35.5205 79.6505 35.4693 79.5002 35.4536 79.3443C35.6797 79.2686 35.905 79.1886 36.1295 79.1042C36.1595 79.3963 36.1898 79.6876 36.2202 79.9782Z" fill="#E2E8FF"/>
<path d="M41.0743 79.2672C40.5328 79.4869 39.9341 79.5221 39.3706 79.3674C38.8071 79.2126 38.3103 78.8766 37.957 78.4112C38.2442 77.7094 38.3968 76.9598 38.4066 76.2015C39.5382 76.5119 40.6691 76.821 41.7592 77.1116C41.5319 77.8295 41.3036 78.548 41.0743 79.2672Z" fill="#FBB8A5"/>
<path d="M49.0628 24.8086C49.528 25.0295 49.7465 25.6586 49.5178 26.1202C49.6583 25.9527 49.4608 26.1652 49.552 26.3603C49.7921 25.694 50.5407 24.8596 50.7802 24.1921C50.913 23.8233 50.9256 23.4219 50.8161 23.0456C50.7066 22.6692 50.4807 22.3372 50.1709 22.0972C49.861 21.8571 49.483 21.7215 49.0912 21.7096C48.6994 21.6977 48.3139 21.8103 47.9901 22.0311C47.3478 22.4687 45.6016 21.809 45.8189 22.5545C45.8855 22.7832 46.927 24.6093 47.1653 24.6129C47.4036 24.6165 48.3058 24.359 48.5424 24.3908C48.7789 24.4226 49.0262 24.6087 49.0628 24.8086Z" fill="#38385C"/>
<path d="M48.4517 25.3037C48.2901 26.1346 47.8888 26.9 47.2973 27.5055C47.2764 27.4327 47.2449 27.3633 47.2037 27.2996C47.0894 27.1297 46.9197 27.0047 46.7235 26.9461C46.5062 27.0129 46.2837 27.0613 46.0584 27.0907C46.0476 27.0601 46.0362 27.0307 46.0254 26.9995C46.0151 26.9707 46.0043 26.9395 45.9941 26.9137C46.2643 26.7834 46.529 26.6447 46.7853 26.5007C47.3033 26.2117 47.8029 25.8909 48.2812 25.5402C48.328 25.506 48.373 25.4724 48.4175 25.4382C48.4271 25.3896 48.4427 25.3451 48.4517 25.3037Z" fill="#F8856C"/>
<path d="M49.1518 24.6993L49.1452 24.7071C48.9423 24.9472 48.671 25.1129 48.3918 25.2522C48.369 25.3296 48.3228 25.4286 48.2784 25.5355C48.2312 25.6416 48.1971 25.7531 48.1769 25.8674C47.9752 26.4227 47.5983 26.5704 47.061 26.8081C46.9289 26.8681 46.8209 26.9083 46.7213 26.9425C46.504 27.0094 46.2815 27.0578 46.0561 27.0872C45.9103 27.1094 45.7362 27.1364 45.5159 27.1743C44.7607 25.7834 44.6389 23.9382 45.4277 22.5173C45.7278 21.977 46.6282 21.7279 47.3732 21.8882C46.8937 22.1908 46.3703 22.4171 45.8214 22.5593C46.0598 22.565 46.2935 22.6269 46.5034 22.74C46.7133 22.8531 46.8935 23.0142 47.0294 23.2102C47.1652 23.4061 47.2529 23.6314 47.2852 23.8676C47.3175 24.1039 47.2935 24.3444 47.2153 24.5696C47.3257 24.3896 47.8702 24.4574 48.0275 24.2971C48.1985 24.1236 48.0701 24.1032 48.1541 23.9027C48.1769 23.6626 48.5023 23.1686 48.8144 23.1986C49.1266 23.2286 49.3817 23.5138 49.4327 23.8253C49.4837 24.1368 49.3553 24.4586 49.1518 24.6993Z" fill="#FBB6A6"/>
<path d="M51.1084 23.7614C50.1682 22.7882 48.8126 22.3548 47.4846 22.4448H47.4822L47.3688 22.4544C45.9195 23.0584 44.146 22.8825 42.8433 21.982C43.6081 21.9369 44.4744 21.8517 45.3414 21.7676C45.5959 21.5875 45.8409 21.4074 46.087 21.2273C46.1768 20.7564 46.3606 20.3084 46.6273 19.9101C48.1805 19.4641 49.9737 20.0242 50.9967 21.2747C51.1924 22.0889 51.2303 22.933 51.1084 23.7614Z" fill="#F75C3D"/>
<path d="M47.4816 22.4453L47.3682 22.4549C45.9191 23.0588 44.1459 22.8829 42.8433 21.9825C43.608 21.9375 44.4742 21.8522 45.341 21.7682C46.0037 22.5089 46.5758 22.4819 47.4816 22.4453Z" fill="#E44531"/>
<path d="M38.3062 41.5807H39.6376C39.6376 41.5807 39.9077 41.7824 39.3777 41.7824C39.0841 41.7863 38.791 41.7565 38.5042 41.6935L38.3062 41.5807Z" fill="#F8856C"/>
<path d="M45.5181 24.34C45.6179 24.34 45.6988 24.1352 45.6988 23.8826C45.6988 23.63 45.6179 23.4252 45.5181 23.4252C45.4183 23.4252 45.3374 23.63 45.3374 23.8826C45.3374 24.1352 45.4183 24.34 45.5181 24.34Z" fill="#38385C"/>
<path d="M45.2637 25.5894C45.5685 25.5732 45.8654 25.4859 46.1305 25.3345C46.3955 25.183 46.6215 24.9716 46.7902 24.7172C46.8027 24.9057 46.7613 25.094 46.671 25.26C46.5807 25.426 46.4451 25.5629 46.2799 25.6548C45.948 25.8331 45.5122 25.7941 45.2637 25.5894Z" fill="#FEFEFE"/>
<path d="M45.4966 23.0926C45.5927 23.0254 45.705 22.985 45.822 22.9756C45.9389 22.9662 46.0562 22.9882 46.1618 23.0391C46.2675 23.0901 46.3576 23.1683 46.423 23.2657C46.4884 23.3631 46.5267 23.4761 46.5339 23.5932C46.2592 23.3076 45.8911 23.1299 45.4966 23.0926Z" fill="#38385C"/>
<path d="M48.5815 23.6965C48.6018 23.6483 48.6355 23.6069 48.6787 23.5774C48.7218 23.5478 48.7726 23.5313 48.8248 23.5298C48.8771 23.5283 48.9287 23.5418 48.9735 23.5688C49.0183 23.5958 49.0543 23.6351 49.0774 23.6821C49.1199 23.7687 49.1443 23.8632 49.1491 23.9596C49.1539 24.056 49.1389 24.1524 49.1052 24.2428C49.0715 24.3333 49.0197 24.4159 48.953 24.4856C48.8863 24.5554 48.8061 24.6108 48.7172 24.6485C48.8311 24.5485 48.9229 24.4258 48.9867 24.2884C49.018 24.2194 49.0335 24.1443 49.0321 24.0686C49.0306 23.9929 49.0123 23.9185 48.9783 23.8508C48.9405 23.7829 48.8802 23.7303 48.8077 23.7022C48.7353 23.674 48.6553 23.672 48.5815 23.6965Z" fill="#F8856C"/>
<path d="M42.6995 30.7502H23.4922V41.5831H42.6995V30.7502Z" fill="#FEBE3D"/>
<path d="M42.6995 40.8458H23.4922V41.5837H42.6995V40.8458Z" fill="#EC7F37"/>
<path d="M42.6997 41.0452V30.7502L43.6219 31.2497V41.0452H42.6997Z" fill="#EC7F37"/>
<path d="M41.332 39.9585C40.3741 39.9833 39.4567 40.3497 38.7454 40.9916C38.9255 41.1681 39.222 41.1843 39.4609 41.099C39.6998 41.0138 39.8985 40.8433 40.0906 40.6788C40.0729 40.881 40.0027 41.0749 39.8868 41.2415C39.771 41.4081 39.6136 41.5415 39.4303 41.6285C39.0641 41.7984 38.6799 41.7065 38.2808 41.5847C38.6829 41.9238 39.2154 42.0078 39.7406 42.0409C40.2659 42.0739 40.7905 41.994 41.311 41.9154C41.3212 41.2437 41.329 40.5744 41.332 39.9585Z" fill="#FBB8A5"/>
<path d="M53.1397 44.9998C50.9566 45.3511 48.7466 45.508 46.5358 45.4687C45.6477 45.4543 44.7607 45.4072 43.875 45.3276C43.9951 43.6818 44.1151 42.0362 44.2352 40.3908C47.1301 40.1285 49.6384 37.5583 49.8318 34.658C49.9518 32.8479 51.1586 31.8225 52.9536 31.236C52.9536 31.3644 52.9536 31.4923 52.9578 31.619C53.0059 36.2694 53.0893 40.392 53.1397 44.9998Z" fill="#F75C3D"/>
<path d="M56.0547 44.4113C55.0917 44.6463 54.1199 44.8424 53.1393 44.9997C50.9562 45.351 48.7462 45.5079 46.5354 45.4686C47.8976 40.5871 50.0211 35.9079 52.9592 31.6213C53.2018 31.2663 53.4501 30.9143 53.7043 30.5653C55.1275 35.0489 55.9186 39.7092 56.0547 44.4113ZM45.959 29.5795C44.7239 32.835 44.2117 36.3202 44.4581 39.7934C47.8592 37.5066 50.0769 33.5448 50.2438 29.4462C50.2702 28.8116 49.7311 28.2455 49.1115 28.1032C48.4919 27.9609 47.8346 28.1776 47.3104 28.5409C46.7863 28.9041 46.3835 29.403 45.959 29.5795Z" fill="#F75C3D"/>
<path d="M49.9808 27.3582C50.4809 27.2027 53.2007 29.2263 53.6425 30.3746C52.6641 30.389 50.4869 30.3806 49.6249 30.8428C49.991 29.7887 49.4214 28.5017 48.3955 28.0605C48.9664 27.7964 49.5354 27.5317 49.9808 27.3582Z" fill="#E44531"/>
<path d="M41.0376 39.8595C42.7514 39.6507 44.3996 39.0729 45.8687 38.1659C46.6491 37.6814 47.1486 36.8349 47.4296 35.9578C47.7106 35.0806 47.7994 34.1567 47.9543 33.2495C48.1092 32.3424 48.3392 31.4239 48.8549 30.6632C49.3706 29.9025 50.2543 29.5573 51.1494 29.3424C52.3399 29.0554 54.126 30.3294 53.8925 31.1795C52.1772 37.431 52.1448 37.5433 50.5827 39.9736C50.3858 40.2797 50.058 40.4442 49.72 40.5799C44.2957 42.755 42.4118 42.2651 42.2155 42.2009C41.9814 41.5225 41.321 40.4623 41.0376 39.8595Z" fill="#E44531"/>
<path d="M40.6323 39.9752C40.9427 40.7628 41.1167 41.596 41.4265 42.3848C41.3821 42.4004 41.4733 42.3698 41.4265 42.3848L42.3791 42.3535L41.6696 40.1631C41.636 40.0656 41.5757 39.9794 41.4956 39.9144C41.4155 39.8493 41.3188 39.808 41.2164 39.7952C41.0093 39.7724 40.7938 39.8768 40.6323 39.9752Z" fill="#F75C3D"/>
<path d="M50.047 26.6798L45.6445 28.7718C45.6625 29.2408 45.6803 29.7094 45.698 30.1776L50.4017 27.4001C50.2763 27.1648 50.1508 26.9247 50.047 26.6798Z" fill="#463E52"/>
<path d="M46.0239 26.9961C46.0341 26.9901 46.0437 26.9859 46.0539 26.9805C46.0444 26.9868 46.0344 26.9922 46.0239 26.9967C46.0035 27.0093 45.9837 27.0195 45.9639 27.0309C45.9831 27.018 46.0032 27.0064 46.0239 26.9961Z" fill="#FFA8A8"/>
<path d="M45.4687 46.686L34.4995 76.6265L43.1399 77.4154L49.2629 65.3566L53.3202 47.024L45.4687 46.686Z" fill="#1A1A35"/>
<path d="M52.094 77.595L63.9811 24.8007C64.078 24.3703 64.3151 23.9842 64.6553 23.7033C64.9954 23.4224 65.4193 23.2625 65.8602 23.2487L91.3154 22.4527C91.6174 22.4425 91.9176 22.5013 92.1934 22.6246C92.4691 22.748 92.7131 22.9326 92.9068 23.1644C93.1004 23.3963 93.2386 23.6693 93.3108 23.9626C93.3831 24.2559 93.3875 24.5618 93.3237 24.8571L93.0601 26.0938L81.9048 78.3755C81.8099 78.8201 81.5656 79.2188 81.2126 79.5053C80.8596 79.7918 80.4191 79.9488 79.9645 79.9502L54.041 80.0252C53.5687 80.0262 53.1115 79.8595 52.7506 79.5549C52.3898 79.2502 52.1488 78.8274 52.0706 78.3617C52.0291 78.107 52.037 77.8467 52.094 77.595ZM82.2861 23.295L74.7305 23.5075C74.6362 23.5109 74.5469 23.5513 74.482 23.6199C74.4171 23.6885 74.3817 23.7799 74.3835 23.8743C74.3835 23.8791 74.3835 23.8839 74.3835 23.8887C74.3904 23.9807 74.4323 24.0664 74.5005 24.1284C74.5688 24.1904 74.6582 24.2239 74.7504 24.2219L82.3059 24.0094C82.3568 24.0144 82.4081 24.0085 82.4565 23.992C82.505 23.9756 82.5493 23.9491 82.5867 23.9142C82.6241 23.8793 82.6536 23.8369 82.6733 23.7897C82.693 23.7425 82.7024 23.6917 82.701 23.6406C82.6995 23.5895 82.6872 23.5393 82.6648 23.4933C82.6425 23.4473 82.6106 23.4067 82.5713 23.374C82.532 23.3413 82.4861 23.3173 82.4369 23.3037C82.3876 23.2901 82.336 23.2871 82.2855 23.295H82.2861ZM55.7076 76.6386L79.2494 76.5702C79.6623 76.569 80.0624 76.4264 80.3829 76.1662C80.7035 75.9061 80.9254 75.5439 81.0115 75.1401L91.3797 26.5417C91.4722 26.108 91.4021 25.6554 91.1827 25.27C90.9633 24.8845 90.61 24.5932 90.1898 24.4513C89.9859 24.3826 89.7714 24.3513 89.5564 24.3588L66.4426 25.0792C66.0422 25.0918 65.6573 25.2371 65.3484 25.4923C65.0396 25.7475 64.8243 26.098 64.7364 26.4889L62.9527 34.4136L62.9419 34.4598L53.9377 74.4347C53.8781 74.6997 53.8789 74.9747 53.9402 75.2393C54.0015 75.5039 54.1216 75.7513 54.2917 75.9631C54.4618 76.1748 54.6774 76.3455 54.9225 76.4625C55.1676 76.5795 55.436 76.6397 55.7076 76.6386Z" fill="#38385C"/>
<path d="M52.4911 81.5357C52.5278 81.5895 52.5692 81.6399 52.6147 81.6864C52.8106 81.941 53.0631 82.1466 53.3521 82.2867C53.6412 82.4269 53.9589 82.4978 54.2801 82.4939L81.2362 82.363C82.21 82.3582 83.0517 81.6954 83.257 80.7703L94.8728 28.4616L95.2468 26.7758C95.2775 26.6378 95.2934 26.497 95.2942 26.3556C95.1621 25.9179 94.6266 25.1861 94.1025 24.5395C93.5274 23.8299 92.966 23.2235 92.966 23.2235L92.9606 23.2421C93.1342 23.4695 93.2563 23.7319 93.3185 24.0112C93.3807 24.2905 93.3815 24.5799 93.3208 24.8595L93.0573 26.0962L81.9044 78.3754C81.8095 78.8201 81.5652 79.2188 81.2122 79.5053C80.8592 79.7918 80.4187 79.9488 79.9641 79.9502L54.0406 80.0252C53.5683 80.0262 53.1111 79.8595 52.7502 79.5549C52.3894 79.2502 52.1484 78.8274 52.0702 78.3616C52.0702 78.3616 51.9195 80.7168 52.4911 81.5357Z" fill="#1A1A35"/>
<path d="M55.707 76.6387L79.2489 76.5703C79.6618 76.5691 80.0618 76.4265 80.3824 76.1663C80.703 75.9061 80.9248 75.544 81.0109 75.1402L91.3791 26.5418C91.4717 26.108 91.4016 25.6554 91.1822 25.27C90.9628 24.8846 90.6094 24.5932 90.1892 24.4513C89.9854 24.3827 89.7708 24.3514 89.5559 24.3589L66.4421 25.0793C66.0416 25.0919 65.6567 25.2372 65.3479 25.4924C65.039 25.7475 64.8237 26.0981 64.7358 26.4889L62.9522 34.4137L62.9414 34.4599L53.9372 74.4348C53.8775 74.6997 53.8784 74.9748 53.9397 75.2394C54.0009 75.504 54.1211 75.7513 54.2912 75.9631C54.4612 76.1749 54.6768 76.3456 54.922 76.4626C55.1671 76.5795 55.4354 76.6397 55.707 76.6387Z" fill="#E2EEFC"/>
<g opacity="0.64">
<path d="M79.7065 24.6668L89.5938 34.9053L90.0627 32.7056L82.2238 24.5875L79.7065 24.6668Z" fill="#E2E8FF"/>
<path d="M71.5972 24.9202L88.0824 41.9919L89.2657 36.4446L77.9454 24.7214L71.5972 24.9202Z" fill="#E2E8FF"/>
<path d="M59.8789 48.0453L81.9211 70.8721L83.5246 63.3551L61.5545 40.6027L59.8789 48.0453Z" fill="#E2E8FF"/>
<path d="M58.4414 54.4308L79.7493 76.4976C80.0625 76.4062 80.345 76.2318 80.567 75.9928C80.789 75.7538 80.9421 75.4592 81.0101 75.1401L81.0143 75.1209L58.9313 52.2521L58.4414 54.4308Z" fill="#E2E8FF"/>
<path d="M56.5674 62.7535L69.9356 76.5978L78.7734 76.572L58.243 55.3103L56.5674 62.7535Z" fill="#E2E8FF"/>
<path d="M71.5972 24.9202L88.0824 41.9919L89.2657 36.4446L77.9454 24.7214L71.5972 24.9202Z" fill="#E2E8FF"/>
<path d="M79.7065 24.6668L89.5938 34.9053L90.0627 32.7056L82.2238 24.5875L79.7065 24.6668Z" fill="#E2E8FF"/>
<path d="M58.4414 54.4308L79.7493 76.4976C80.0625 76.4062 80.345 76.2318 80.567 75.9928C80.789 75.7538 80.9421 75.4592 81.0101 75.1401L81.0143 75.1209L58.9313 52.2521L58.4414 54.4308Z" fill="#E2E8FF"/>
<path d="M56.5674 62.7535L69.9356 76.5978L78.7734 76.572L58.243 55.3103L56.5674 62.7535Z" fill="#E2E8FF"/>
<path d="M59.8789 48.0453L81.9211 70.8721L83.5246 63.3551L61.5545 40.6027L59.8789 48.0453Z" fill="#E2E8FF"/>
</g>
<path d="M74.384 23.8905C74.3909 23.9825 74.4327 24.0682 74.501 24.1302C74.5692 24.1922 74.6586 24.2257 74.7508 24.2237L82.3063 24.0112C82.3572 24.0162 82.4085 24.0103 82.457 23.9938C82.5054 23.9774 82.5498 23.9509 82.5871 23.916C82.6245 23.8811 82.654 23.8387 82.6737 23.7915C82.6934 23.7443 82.7029 23.6935 82.7014 23.6424C82.7 23.5913 82.6876 23.5411 82.6653 23.4951C82.6429 23.4491 82.611 23.4085 82.5717 23.3758C82.5324 23.3431 82.4866 23.3191 82.4373 23.3055C82.388 23.2919 82.3364 23.2889 82.2859 23.2968L74.7304 23.5093C74.636 23.5127 74.5467 23.5531 74.4818 23.6217C74.4169 23.6903 74.3816 23.7817 74.3834 23.8761C74.3833 23.8809 74.3835 23.8857 74.384 23.8905Z" fill="#E2E8FF"/>
<path d="M65.4458 59.4725C66.317 61.7008 67.1889 63.9292 68.0613 66.1578C67.7099 66.3029 67.3489 66.4232 66.9808 66.518C66.6722 66.1979 66.3541 65.8863 66.0263 65.5834C66.1553 65.4943 66.2625 65.3771 66.3397 65.2406C66.4495 65.0287 66.4195 64.7244 66.213 64.6061C65.9729 64.773 65.7328 64.9395 65.4927 65.1055C65.4224 65.0455 65.3522 64.9855 65.2802 64.9255C65.3192 64.9027 65.3594 64.8828 65.4002 64.8654C65.5485 64.7928 65.7004 64.7232 65.8204 64.6085C65.9405 64.4939 66.0155 64.3186 65.9651 64.1607C65.9147 64.0028 65.7034 63.9044 65.5713 64.004C65.324 64.1885 65.0769 64.3736 64.83 64.5593C64.7537 64.4993 64.6775 64.4392 64.6006 64.3792L65.5107 63.7087C65.5269 63.4866 65.2507 63.3395 65.0352 63.3912C64.8935 63.4328 64.7657 63.512 64.6655 63.6205C64.6114 63.6727 64.5598 63.7285 64.5094 63.7825C64.5016 63.7903 64.4944 63.7987 64.4872 63.8065C64.3987 63.9066 64.2962 63.9933 64.1829 64.0641C64.1144 64.013 64.0448 63.9626 63.9758 63.9128C63.9872 63.89 63.9974 63.8666 64.0076 63.8432C64.2456 63.3096 64.3013 62.7124 64.1658 62.1441C64.0304 61.5757 63.7115 61.0678 63.2584 60.6989C63.1984 60.6497 63.1342 60.6023 63.0693 60.5584C63.8365 60.2001 64.606 59.8483 65.4458 59.4725Z" fill="#F75C3D"/>
<path d="M65.9445 59.2522C66.7717 61.502 67.5989 63.7543 68.4741 65.9951C68.3366 66.0504 68.198 66.1056 68.0617 66.1584C67.1901 63.929 66.3183 61.7005 65.4463 59.4731C65.6096 59.4005 65.7752 59.3266 65.9445 59.2522Z" fill="black"/>
<path d="M65.5099 63.7031L64.5999 64.3737C64.4618 64.2674 64.322 64.1618 64.1797 64.0585C64.2928 63.9876 64.3953 63.9008 64.484 63.801C64.4918 63.7932 64.499 63.7848 64.5062 63.777C64.5567 63.723 64.6083 63.6671 64.6623 63.6149C64.7627 63.5066 64.8905 63.4274 65.0321 63.3856C65.253 63.334 65.5261 63.481 65.5099 63.7031ZM65.9649 64.1564C66.0147 64.3142 65.9379 64.4889 65.8202 64.6042C65.7026 64.7194 65.5477 64.7884 65.4001 64.8611C65.3604 64.8815 65.3202 64.9013 65.28 64.9211C65.1323 64.7955 64.9821 64.6722 64.8292 64.5513C65.0759 64.3659 65.3238 64.1804 65.5705 63.9961C65.7032 63.9006 65.9133 63.9997 65.9649 64.1564ZM66.2134 64.606C66.4199 64.726 66.4493 65.0262 66.3401 65.2405C66.2629 65.3769 66.1558 65.4941 66.0267 65.5832C65.8515 65.4231 65.6732 65.2631 65.4919 65.103L66.2134 64.606Z" fill="#E2E8FF"/>
<path d="M63.256 60.6925C63.709 61.0614 64.028 61.5693 64.1634 62.1377C64.2988 62.706 64.2432 63.3032 64.0051 63.8368C63.2516 63.9228 62.521 64.1496 61.8513 64.5055C61.5788 63.3649 61.3057 62.2244 61.0361 61.1289L63.256 60.6925Z" fill="#FBB8A5"/>
<path d="M47.7606 47.7775C47.7606 47.7775 38.9071 62.55 44.853 67.0196C50.799 71.4893 63.0385 65.5277 63.0385 65.5277L60.9432 60.1671C60.9432 60.1671 50.7371 64.2496 52.0687 59.2666C53.4003 54.2836 55.2999 46.9532 55.2999 46.9532L47.7606 47.7775Z" fill="#38385C"/>
<path d="M56.0496 47.4893C55.0995 47.6881 54.1365 47.8189 53.1678 47.8807C50.0395 48.5564 46.7959 48.4852 43.7002 47.673C43.7454 47.0566 43.7909 46.4399 43.8365 45.8227C43.8485 45.6578 43.8607 45.4927 43.8731 45.3274C44.758 45.4075 45.645 45.4545 46.5339 45.4685C48.7447 45.5078 50.9547 45.3509 53.1378 44.9996C54.1168 44.8423 55.0886 44.6462 56.0532 44.4113C56.084 45.4371 56.0828 46.4631 56.0496 47.4893Z" fill="#E44531"/>
<path d="M45.0425 23.5111C45.0965 23.9109 44.6823 24.3137 44.1606 24.3719C44.6709 24.6222 45.0208 25.0526 45.0875 25.5124C45.2363 24.8785 45.261 24.229 45.0425 23.5111Z" fill="#FBB6A6"/>
<path d="M49.0723 24.7633C49.3072 25.2386 49.4623 25.7493 49.5315 26.2748L50.6162 24.5112C50.1059 24.5995 49.5951 24.6877 49.0723 24.7633Z" fill="#38385C"/>
<path d="M45.3374 21.7788C45.5344 20.9978 46.0197 20.3204 46.6958 19.8826C46.7433 20.3611 46.6862 20.8443 46.5284 21.2986C46.4539 21.5129 46.206 21.6126 45.9809 21.6426C45.7558 21.6726 45.5175 21.6606 45.3374 21.7788Z" fill="#F75C3D"/>
<path d="M44.9176 67.6038L41.127 75.7086M60.2268 78.9608L60.2105 78.9938M50.0303 49.0071C48.9154 50.7271 47.7909 52.4663 47.0999 54.3959C46.4089 56.3255 46.1796 58.4909 46.8802 60.4175C47.5808 62.344 49.3417 63.9524 51.3829 64.0899C55.4455 64.3637 57.4069 64.4957 61.1891 62.9876" stroke="#F2F2F2" stroke-width="0.0600359" stroke-linecap="round" stroke-linejoin="round" stroke-dasharray="0.36 0.18 0.36 0.18 0.36 0.18"/>
<path d="M81.6547 13.4053L80.1634 12.925C80.7638 11.1455 83.4006 10.4953 84.7562 11.7939C84.0447 10.9426 84.6361 9.39666 85.7342 9.23696C86.8322 9.07727 87.8354 10.3927 87.3977 11.4109C88.2473 10.4317 90.0843 10.6598 90.6679 11.8173C91.3685 10.9492 92.9018 10.9768 93.5718 11.8677C96.7234 11.2786 99.9776 11.5967 102.955 12.7851L76.3427 14.0771C78.2585 13.7264 80.1754 13.3758 81.6547 13.4053ZM35.9092 3.90578L37.3675 3.33424C36.659 1.5932 33.9838 1.11291 32.7129 2.49373C33.3691 1.5992 32.6817 0.0923008 31.5758 0.0040481C30.4699 -0.0842046 29.549 1.28942 30.0521 2.27941C29.1426 1.35545 27.3235 1.69946 26.8138 2.89117C26.0597 2.06868 24.5324 2.19175 23.9188 3.12411C20.737 2.73426 17.5098 3.25644 14.6133 4.62981L41.2536 4.24258C39.3174 4.01264 37.3837 3.7833 35.9092 3.90578Z" fill="#E2EEFC"/>
<path d="M3.98389 84.1989C3.98389 83.7212 4.17364 83.2631 4.51141 82.9253C4.84918 82.5876 5.30729 82.3978 5.78496 82.3978H107.722C108.199 82.3978 108.657 82.5876 108.995 82.9253C109.333 83.2631 109.523 83.7212 109.523 84.1989C109.523 84.6766 109.333 85.1347 108.995 85.4725C108.657 85.8102 108.199 86 107.722 86H5.78496C5.30729 86 4.84918 85.8102 4.51141 85.4725C4.17364 85.1347 3.98389 84.6766 3.98389 84.1989Z" fill="#1A1A35"/>
<path d="M6.47803 17.188C6.47803 13.826 9.13101 11.104 12.4042 11.104C15.6773 11.104 18.3303 13.8278 18.3303 17.188C18.3303 20.5482 12.6467 26.6965 12.6467 26.6965C12.6467 26.6965 6.47803 20.5482 6.47803 17.188Z" fill="#F75C3D"/>
<path d="M12.4043 20.4052C14.1776 20.4052 15.6151 18.9676 15.6151 17.1943C15.6151 15.421 14.1776 13.9834 12.4043 13.9834C10.6309 13.9834 9.19336 15.421 9.19336 17.1943C9.19336 18.9676 10.6309 20.4052 12.4043 20.4052Z" fill="#1A1A35"/>
<path d="M12.6465 26.6965L26.9872 24.9957L37.1495 9.82825L59.394 12.9381L65.487 37.7347L81.3473 41.7325L73.6849 54.6126" stroke="#F75C3D" stroke-width="0.480287" stroke-miterlimit="10"/>
<path d="M73.1623 57.7982C74.306 57.7982 75.2332 56.871 75.2332 55.7272C75.2332 54.5835 74.306 53.6562 73.1623 53.6562C72.0185 53.6562 71.0913 54.5835 71.0913 55.7272C71.0913 56.871 72.0185 57.7982 73.1623 57.7982Z" fill="#F75C3D"/>
<path d="M74.0091 56.5742C74.4768 56.1065 74.4768 55.3483 74.0091 54.8806C73.5415 54.4129 72.7832 54.4129 72.3155 54.8806C71.8479 55.3483 71.8479 56.1065 72.3155 56.5742C72.7832 57.0419 73.5415 57.0419 74.0091 56.5742Z" fill="#F5F9FE"/>
<path d="M2.73043 48.1666C2.40564 47.1616 3.09905 45.9525 4.13107 45.7256C5.16308 45.4987 6.29956 46.3061 6.42624 47.3544C7.21271 45.9207 9.62915 45.8595 10.4877 47.2517C14.7437 46.8513 19.0367 47.1761 23.184 48.2123L0 48.5725C1.14068 48.2561 2.28256 47.9373 2.73043 48.1666Z" fill="#E2EEFC"/>
</svg>
