<svg width="21" height="15" viewBox="0 0 21 15" fill="none" xmlns="http://www.w3.org/2000/svg">
<g clip-path="url(#clip0_1422_2124)">
<path fill-rule="evenodd" clip-rule="evenodd" d="M13.1818 4.09091H16.8182H17.0454V4.11955C17.4375 4.22047 17.7273 4.57641 17.7273 5V6.36364C17.7273 6.86573 17.3203 7.27273 16.8182 7.27273H3.63635V7.72728C3.63635 9.48455 5.0609 10.9091 6.81817 10.9091H18.6364C19.6405 10.9091 20.4545 10.095 20.4545 9.09091V1.81818C20.4545 0.814028 19.6405 0 18.6364 0H13.1818V4.09091Z" fill="#FF9927"/>
<path d="M0 15H5C5 12.7407 3.16844 10.9091 0.909091 10.9091H0V15Z" fill="#FF9927"/>
<path d="M0 0H14.0909V4.09091H3.63636C1.62805 4.09091 0 2.46285 0 0.454545V0Z" fill="#FF9927"/>
</g>
<defs>
<clipPath id="clip0_1422_2124">
<rect width="20.4546" height="15" fill="white"/>
</clipPath>
</defs>
</svg>
