<svg width="19" height="14" viewBox="0 0 19 14" fill="none" xmlns="http://www.w3.org/2000/svg">
<g clip-path="url(#clip0_1171_2457)">
<path fill-rule="evenodd" clip-rule="evenodd" d="M12.35 4.00002H15.55H15.75V4.02523C16.095 4.11404 16.35 4.42726 16.35 4.80002V6.00002C16.35 6.44186 15.9918 6.80002 15.55 6.80002H3.95V7.20002C3.95 8.74642 5.2036 10 6.75 10H17.15C18.0336 10 18.75 9.28366 18.75 8.40002V2.00002C18.75 1.11637 18.0336 0.400024 17.15 0.400024H12.35V4.00002Z" fill="#30007E"/>
<path d="M0.75 13.6H5.15C5.15 11.6118 3.53822 10 1.55 10H0.75V13.6Z" fill="#30007E"/>
<path d="M0.75 0.400024H13.15V4.00002H3.95C2.18269 4.00002 0.75 2.56734 0.75 0.800024V0.400024Z" fill="#30007E"/>
</g>
<defs>
<clipPath id="clip0_1171_2457">
<rect width="18" height="13.2" fill="white" transform="translate(0.75 0.400024)"/>
</clipPath>
</defs>
</svg>
