<svg width="12" height="15" viewBox="0 0 12 15" fill="none" xmlns="http://www.w3.org/2000/svg">
<path d="M9.38933 9.54132C10.0163 8.87891 10.4354 8.04731 10.5948 7.14931C10.7542 6.2513 10.6471 5.32626 10.2865 4.48851C9.92589 3.65076 9.32773 2.93704 8.56592 2.43556C7.80411 1.93408 6.91205 1.66682 6 1.66682C5.08795 1.66682 4.19589 1.93408 3.43408 2.43556C2.67227 2.93704 2.07411 3.65076 1.71353 4.48851C1.35295 5.32626 1.24576 6.2513 1.4052 7.14931C1.56464 8.04731 1.98373 8.87891 2.61067 9.54132C2.97045 8.96722 3.47024 8.49398 4.06311 8.16606C4.65599 7.83814 5.32248 7.66629 6 7.66666C6.67752 7.66629 7.34402 7.83814 7.93689 8.16606C8.52976 8.49398 9.02956 8.96722 9.38933 9.54132ZM3.59 10.5233L6 12.9327L8.41 10.5233C8.19388 10.067 7.85266 9.68147 7.42603 9.41148C6.9994 9.14148 6.50489 8.99815 6 8.99815C5.49512 8.99815 5.0006 9.14148 4.57397 9.41148C4.14734 9.68147 3.80612 10.067 3.59 10.5233ZM6 14.8187L1.75734 10.576C0.918228 9.73687 0.346791 8.66777 0.115286 7.50389C-0.11622 6.34 0.00260456 5.13361 0.456732 4.03726C0.91086 2.9409 1.6799 2.00384 2.66659 1.34455C3.65328 0.685266 4.81332 0.333374 6 0.333374C7.18669 0.333374 8.34672 0.685266 9.33342 1.34455C10.3201 2.00384 11.0891 2.9409 11.5433 4.03726C11.9974 5.13361 12.1162 6.34 11.8847 7.50389C11.6532 8.66777 11.0818 9.73687 10.2427 10.576L6 14.8187ZM6 5.66666C6.17681 5.66666 6.34638 5.59642 6.47141 5.47139C6.59643 5.34637 6.66667 5.1768 6.66667 4.99999C6.66667 4.82318 6.59643 4.65361 6.47141 4.52858C6.34638 4.40356 6.17681 4.33332 6 4.33332C5.82319 4.33332 5.65362 4.40356 5.5286 4.52858C5.40357 4.65361 5.33334 4.82318 5.33334 4.99999C5.33334 5.1768 5.40357 5.34637 5.5286 5.47139C5.65362 5.59642 5.82319 5.66666 6 5.66666ZM6 6.99999C5.46957 6.99999 4.96086 6.78928 4.58579 6.4142C4.21072 6.03913 4 5.53042 4 4.99999C4 4.46956 4.21072 3.96085 4.58579 3.58578C4.96086 3.2107 5.46957 2.99999 6 2.99999C6.53044 2.99999 7.03914 3.2107 7.41422 3.58578C7.78929 3.96085 8 4.46956 8 4.99999C8 5.53042 7.78929 6.03913 7.41422 6.4142C7.03914 6.78928 6.53044 6.99999 6 6.99999Z" fill="#7E7D7D"/>
</svg>
