<svg width="15" height="12" viewBox="0 0 15 12" fill="none" xmlns="http://www.w3.org/2000/svg">
<path d="M6.5135 6.144L9.00016 2L14.3335 12H0.333496L5.00016 3.33333L6.5135 6.144ZM7.26016 7.492L8.9915 10.6667H12.1115L8.9315 4.70533L7.26016 7.492ZM2.5655 10.6667H7.43483L5.00016 6.146L2.5655 10.6667ZM2.66683 3.33333C2.2248 3.33333 1.80088 3.15774 1.48832 2.84518C1.17576 2.53262 1.00016 2.10869 1.00016 1.66667C1.00016 1.22464 1.17576 0.800716 1.48832 0.488155C1.80088 0.175595 2.2248 0 2.66683 0C3.10886 0 3.53278 0.175595 3.84534 0.488155C4.1579 0.800716 4.3335 1.22464 4.3335 1.66667C4.3335 2.10869 4.1579 2.53262 3.84534 2.84518C3.53278 3.15774 3.10886 3.33333 2.66683 3.33333Z" fill="#7C7C7C"/>
</svg>
