<svg width="54" height="54" viewBox="0 0 54 54" fill="none" xmlns="http://www.w3.org/2000/svg">
<circle cx="27" cy="27" r="27" fill="#D2B7FF"/>
<circle cx="27" cy="27" r="21" fill="#8C46FF"/>
<g clip-path="url(#clip0_688_1299)">
<path d="M27 37C21.477 37 17 32.523 17 27C17 21.477 21.477 17 27 17C32.523 17 37 21.477 37 27C37 32.523 32.523 37 27 37ZM27 35C29.1217 35 31.1566 34.1571 32.6569 32.6569C34.1571 31.1566 35 29.1217 35 27C35 24.8783 34.1571 22.8434 32.6569 21.3431C31.1566 19.8429 29.1217 19 27 19C24.8783 19 22.8434 19.8429 21.3431 21.3431C19.8429 22.8434 19 24.8783 19 27C19 29.1217 19.8429 31.1566 21.3431 32.6569C22.8434 34.1571 24.8783 35 27 35V35ZM26.003 31L21.76 26.757L23.174 25.343L26.003 28.172L31.659 22.515L33.074 23.929L26.003 31Z" fill="#30007E"/>
</g>
<defs>
<clipPath id="clip0_688_1299">
<rect width="24" height="24" fill="white" transform="translate(15 15)"/>
</clipPath>
</defs>
</svg>
