<svg width="14" height="14" viewBox="0 0 14 14" fill="none" xmlns="http://www.w3.org/2000/svg">
<path d="M11.199 11.0778C10.7892 10.9332 10.4344 10.6651 10.1834 10.3104C9.93238 9.95566 9.7976 9.53183 9.7976 9.09729C9.7976 8.66276 9.93238 8.23893 10.1834 7.88421C10.4344 7.5295 10.7892 7.26136 11.199 7.11678L11.199 -0.000477327L12.5986 -0.000477388L12.5986 7.11678C13.0084 7.26136 13.3632 7.5295 13.6142 7.88421C13.8652 8.23893 14 8.66276 14 9.09729C14 9.53183 13.8652 9.95566 13.6142 10.3104C13.3632 10.6651 13.0084 10.9332 12.5986 11.0778L12.5986 13.9961L11.199 13.9961L11.199 11.0778ZM6.30017 6.87884C5.8904 6.73425 5.53556 6.46612 5.28457 6.11141C5.03358 5.75669 4.8988 5.33286 4.8988 4.89832C4.8988 4.46379 5.03358 4.03996 5.28457 3.68524C5.53556 3.33052 5.8904 3.06239 6.30017 2.91781L6.30017 -0.000477113L7.69983 -0.000477174L7.69983 2.91781C8.1096 3.06239 8.46444 3.33052 8.71543 3.68524C8.96642 4.03996 9.1012 4.46379 9.1012 4.89832C9.1012 5.33286 8.96642 5.75669 8.71543 6.11141C8.46444 6.46612 8.1096 6.73425 7.69983 6.87884L7.69983 13.9961L6.30017 13.9961L6.30017 6.87884ZM1.40137 11.0778C0.991599 10.9332 0.636763 10.6651 0.385773 10.3104C0.134784 9.95566 -1.95139e-07 9.53183 -2.14133e-07 9.09729C-2.33127e-07 8.66276 0.134784 8.23893 0.385773 7.88421C0.636763 7.5295 0.991599 7.26137 1.40137 7.11678L1.40137 -0.000476898L2.80103 -0.00047696L2.80103 7.11678C3.2108 7.26137 3.56564 7.5295 3.81663 7.88421C4.06762 8.23893 4.2024 8.66276 4.2024 9.09729C4.2024 9.53183 4.06762 9.95566 3.81663 10.3104C3.56564 10.6651 3.2108 10.9332 2.80103 11.0778L2.80103 13.9961L1.40137 13.9961L1.40137 11.0778ZM2.80103 9.09729C2.80103 8.91169 2.7273 8.73368 2.59605 8.60244C2.46481 8.4712 2.28681 8.39747 2.1012 8.39747C1.91559 8.39747 1.73759 8.4712 1.60635 8.60244C1.4751 8.73368 1.40137 8.91169 1.40137 9.09729C1.40137 9.2829 1.4751 9.4609 1.60635 9.59215C1.73759 9.72339 1.91559 9.79712 2.1012 9.79712C2.28681 9.79712 2.46481 9.72339 2.59605 9.59215C2.7273 9.4609 2.80103 9.2829 2.80103 9.09729ZM7.69983 4.89832C7.69983 4.71272 7.6261 4.53471 7.49485 4.40347C7.36361 4.27223 7.18561 4.19849 7 4.19849C6.81439 4.19849 6.63639 4.27223 6.50515 4.40347C6.3739 4.53471 6.30017 4.71272 6.30017 4.89832C6.30017 5.08393 6.3739 5.26193 6.50515 5.39318C6.63639 5.52442 6.81439 5.59815 7 5.59815C7.18561 5.59815 7.36361 5.52442 7.49485 5.39318C7.6261 5.26193 7.69983 5.08393 7.69983 4.89832ZM12.5986 9.09729C12.5986 8.91169 12.5249 8.73368 12.3937 8.60244C12.2624 8.4712 12.0844 8.39747 11.8988 8.39747C11.7132 8.39747 11.5352 8.4712 11.4039 8.60244C11.2727 8.73368 11.199 8.91169 11.199 9.09729C11.199 9.2829 11.2727 9.4609 11.4039 9.59215C11.5352 9.72339 11.7132 9.79712 11.8988 9.79712C12.0844 9.79712 12.2624 9.72339 12.3937 9.59215C12.5249 9.4609 12.5986 9.2829 12.5986 9.09729Z" fill="#7E7D7D"/>
</svg>
