<svg width="17" height="16" viewBox="0 0 17 16" fill="none" xmlns="http://www.w3.org/2000/svg">
<path d="M8 15.5C3.85775 15.5 0.5 12.1423 0.5 8C0.5 3.85775 3.85775 0.500002 8 0.500002C9.16449 0.499127 10.3131 0.769832 11.3547 1.29061C12.3963 1.81139 13.302 2.56788 14 3.5H11.9675C11.1014 2.73632 10.0334 2.23877 8.89154 2.06705C7.74969 1.89533 6.58255 2.05674 5.53017 2.53191C4.47778 3.00708 3.58486 3.77582 2.95855 4.74589C2.33224 5.71596 1.99915 6.84615 1.99925 8.00083C1.99934 9.15552 2.33262 10.2856 2.95909 11.2556C3.58557 12.2256 4.47861 12.9942 5.53108 13.4692C6.58354 13.9442 7.75071 14.1054 8.89252 13.9335C10.0343 13.7616 11.1023 13.2638 11.9683 12.5H14.0007C13.3027 13.4322 12.3968 14.1888 11.3551 14.7096C10.3134 15.2303 9.16462 15.501 8 15.5ZM13.25 11V8.75H7.25V7.25H13.25V5L17 8L13.25 11Z" fill="#E2E8FF"/>
</svg>
