<svg width="30" height="20" viewBox="0 0 30 20" fill="none" xmlns="http://www.w3.org/2000/svg">
<rect width="30" height="20" rx="8" fill="white"/>
<path d="M22 16.912V6.79403L18 4.79403L17.561 4.54003C17.437 4.33403 17.296 4.13803 17.121 3.96403C15.951 2.79503 14.049 2.79503 12.879 3.96403C12.313 4.53103 12 5.28503 12 6.08603C12 6.16003 12.016 6.23203 12.021 6.30503L8 4.29403V14.412L12 16.412L12.477 16.65L13 16.442L17.477 14.651L22 16.912ZM21 7.41203V15.294L18 13.794V6.08603V5.91203L21 7.41203ZM13.586 4.67103C14.365 3.89203 15.635 3.89203 16.414 4.67103C16.598 4.85503 16.739 5.06903 16.838 5.30003L16.858 5.35003C16.865 5.36703 16.868 5.38503 16.874 5.40203C16.911 5.50403 16.944 5.60703 16.964 5.71203C16.987 5.83403 17 5.95903 17 6.08603C17 6.62003 16.792 7.12203 16.414 7.50003L15 8.91403L13.586 7.50003C13.491 7.40503 13.407 7.30203 13.334 7.19303C13.321 7.17303 13.313 7.15103 13.301 7.13203C13.244 7.03903 13.19 6.94503 13.149 6.84403C13.052 6.60703 13 6.35003 13 6.08603C13 5.55203 13.208 5.04903 13.586 4.67103ZM9 13.794V5.91203L12 7.41203V15.294L9 13.794ZM13 8.32803L15 10.328L17 8.32803V13.765L13 15.365V8.32803Z" fill="#424242"/>
<path d="M15 6.53198C15.3452 6.53198 15.625 6.25216 15.625 5.90698C15.625 5.5618 15.3452 5.28198 15 5.28198C14.6548 5.28198 14.375 5.5618 14.375 5.90698C14.375 6.25216 14.6548 6.53198 15 6.53198Z" fill="#424242"/>
</svg>
