<svg width="14" height="14" viewBox="0 0 14 14" fill="none" xmlns="http://www.w3.org/2000/svg">
<path d="M11.3333 0.333374C11.7013 0.333374 12 0.632041 12 1.00004V3.50471L10.6667 4.83804V1.66671H1.33333V12.3334H10.6667V10.4947L12 9.16137V13C12 13.368 11.7013 13.6667 11.3333 13.6667H0.666667C0.298667 13.6667 0 13.368 0 13V1.00004C0 0.632041 0.298667 0.333374 0.666667 0.333374H11.3333ZM12.5187 4.87204L13.4613 5.81471L8.276 11L7.332 10.9987L7.33333 10.0574L12.5187 4.87204ZM6.66667 7.00004V8.33337H3.33333V7.00004H6.66667ZM8.66667 4.33337V5.66671H3.33333V4.33337H8.66667Z" fill="#7E7D7D"/>
</svg>
