<svg width="14" height="15" viewBox="0 0 14 15" fill="none" xmlns="http://www.w3.org/2000/svg">
<path d="M13.8501 14.25C13.8501 14.4489 13.7711 14.6396 13.6304 14.7803C13.4898 14.9209 13.299 15 13.1001 15H1.1001C0.901185 15 0.71042 14.9209 0.569768 14.7803C0.429115 14.6396 0.350098 14.4489 0.350098 14.25V6.36746C0.350019 6.25317 0.376061 6.14037 0.426235 6.03768C0.476409 5.935 0.549388 5.84513 0.639598 5.77496L6.6396 1.10846C6.77125 1.00604 6.9333 0.950439 7.1001 0.950439C7.2669 0.950439 7.42894 1.00604 7.5606 1.10846L13.5606 5.77496C13.6508 5.84513 13.7238 5.935 13.774 6.03768C13.8241 6.14037 13.8502 6.25317 13.8501 6.36746V14.25ZM12.3501 13.5V6.73346L7.1001 2.65046L1.8501 6.73346V13.5H12.3501Z" fill="#30007E"/>
</svg>
