<svg width="16" height="12" viewBox="0 0 16 12" fill="none" xmlns="http://www.w3.org/2000/svg">
<g clip-path="url(#clip0_1422_5588)">
<path fill-rule="evenodd" clip-rule="evenodd" d="M10.3111 3.2H13.1555H13.3333V3.2224C13.64 3.30134 13.8666 3.57977 13.8666 3.91111V4.97778C13.8666 5.37052 13.5483 5.68889 13.1555 5.68889H2.84442V6.04444C2.84442 7.41902 3.95873 8.53333 5.33331 8.53333H14.5778C15.3632 8.53333 16 7.89657 16 7.11111V1.42222C16 0.63675 15.3632 0 14.5778 0H10.3111V3.2Z" fill="#7E7D7D"/>
<path d="M0 11.7333H3.91111C3.91111 9.966 2.47842 8.53333 0.711111 8.53333H0V11.7333Z" fill="#7E7D7D"/>
<path d="M0 0H11.0222V3.2H2.84444C1.2735 3.2 0 1.9265 0 0.355556V0Z" fill="#7E7D7D"/>
</g>
<defs>
<clipPath id="clip0_1422_5588">
<rect width="16" height="11.7333" fill="white"/>
</clipPath>
</defs>
</svg>
