<svg width="14" height="14" viewBox="0 0 14 14" fill="none" xmlns="http://www.w3.org/2000/svg">
<path fill-rule="evenodd" clip-rule="evenodd" d="M10.5781 2.22611C12.028 3.31469 12.965 5.04895 12.965 7C12.965 8.61539 12.3217 10.0816 11.2774 11.1562C10.1958 12.2727 8.67832 12.965 7 12.965C5.32168 12.965 3.8042 12.2727 2.72261 11.1562C1.67832 10.0816 1.03497 8.61539 1.03497 7C1.03497 5.04895 1.97203 3.31469 3.42191 2.22611C4.41958 1.47786 5.65734 1.03497 7 1.03497C8.34266 1.03497 9.58042 1.47786 10.5781 2.22611ZM3.33566 5.80187C3.23776 6.13287 3.25641 6.45455 3.25641 6.81585C3.25641 7.07226 3.24709 7.02331 3.41259 7.02331H4.32401C4.39627 7.02331 4.4359 7.01632 4.50583 7.01632L4.51515 7.00699V6.23077C4.51748 6.22844 4.51748 6.22611 4.51748 6.22378C4.52681 6.18881 4.65501 6.2028 4.71329 6.2028C4.80187 6.2028 5.04429 6.20746 5.11422 6.19814C5.17716 6.18881 5.25874 6.19114 5.3007 6.21212V10.5758C5.3007 10.6014 5.3007 10.627 5.3007 10.6503C5.29837 10.7902 5.3986 10.8578 5.54312 10.8089C5.58974 10.7949 5.62704 10.7786 5.67832 10.7622L6.23776 10.5688C6.60606 10.4476 6.55245 10.5128 6.55245 9.94639V6.1958H6.57576C6.61538 6.20746 6.72494 6.1958 6.76457 6.1958H6.81119H7.40559C7.41026 6.1958 7.41958 6.1958 7.42424 6.1958H7.45455V10.5851C7.45455 10.6643 7.44988 10.704 7.48019 10.7576C7.56177 10.8974 7.74825 10.7949 7.91375 10.7366C7.96503 10.7203 8.01165 10.7016 8.06061 10.6853C8.11189 10.669 8.16084 10.6527 8.20979 10.634C8.25641 10.6154 8.30536 10.6014 8.35664 10.5851C8.40559 10.5664 8.45221 10.5501 8.5035 10.5315C8.61539 10.4918 8.70862 10.4802 8.71329 10.3357C8.72494 10.0839 8.71329 9.79953 8.71329 9.54079V6.34499C8.71329 6.15618 8.66434 6.1958 8.9627 6.1958C9.27739 6.1958 9.60373 6.21678 9.89044 6.12121C10.324 5.97669 10.6177 5.6317 10.7063 5.18881C10.7226 5.10956 10.7319 5.00932 10.7389 4.9021L10.7436 4.92774C10.7436 4.90443 10.7483 4.88112 10.7389 4.86713C10.7483 4.67832 10.7459 4.47319 10.7436 4.30536C10.7436 4.26107 10.7459 4.25874 10.704 4.25641H9.54079C9.48485 4.26107 9.49184 4.26807 9.49184 4.34033C9.49184 4.53846 9.48485 4.74126 9.48485 4.93706H5.6317C5.60606 4.93706 5.57576 4.93473 5.55012 4.93706C5.28205 4.94406 4.94639 4.92774 4.68065 4.93706C4.63869 4.93706 4.63869 4.94406 4.59674 4.94406C4.01166 4.9627 3.50117 5.24009 3.33566 5.80187ZM6.55245 4.31935C6.55245 4.17716 6.55245 4.03497 6.55245 3.89277C6.55245 3.82984 6.56177 3.64569 6.55478 3.5338C6.55012 3.47319 6.53846 3.42657 6.47086 3.41026C6.45688 3.40559 6.4289 3.40326 6.40326 3.40326H5.43357C5.34965 3.40326 5.3007 3.44988 5.3007 3.55245V4.28205C5.3007 4.40793 5.31235 4.44056 5.44289 4.44056C5.57343 4.43823 6.36597 4.44755 6.46154 4.43823C6.54312 4.43357 6.55245 4.37995 6.55245 4.31935ZM8.70629 4.31935C8.70629 4.17716 8.70629 4.03497 8.70629 3.89277C8.70629 3.82984 8.71562 3.64569 8.70862 3.5338C8.70163 3.47319 8.68998 3.42657 8.62471 3.41026C8.61072 3.40559 8.58275 3.40326 8.55711 3.40326H7.58741C7.5035 3.40326 7.45455 3.44988 7.45455 3.55245V4.28205C7.45455 4.40793 7.4662 4.44056 7.59674 4.44056C7.72727 4.43823 8.51981 4.44755 8.61539 4.43823C8.69697 4.43357 8.70629 4.37995 8.70629 4.31935ZM12.634 11.1562C13.4918 9.99301 14 8.55711 14 7C14 5.15618 13.2867 3.47786 12.1212 2.22611C10.8438 0.857809 9.02098 0 7 0C4.97902 0 3.15618 0.857809 1.87879 2.22611C0.713287 3.47786 0 5.15618 0 7C0 8.55711 0.508159 9.99301 1.36597 11.1562C2.64103 12.8811 4.68998 14 7 14C9.31002 14 11.359 12.8811 12.634 11.1562Z" fill="#7E7D7D"/>
</svg>
