<svg width="8" height="7" viewBox="0 0 8 7" fill="none" xmlns="http://www.w3.org/2000/svg">
<path d="M0.796684 0.981095C0.716575 1.13601 0.710301 1.34738 0.740222 1.49746C0.751382 1.54474 0.752911 1.59378 0.744717 1.64167C0.736522 1.68955 0.718773 1.73529 0.692525 1.77617C0.666278 1.81705 0.632071 1.85222 0.591941 1.8796C0.551812 1.90698 0.506582 1.926 0.458946 1.93552C0.411311 1.94505 0.362245 1.94489 0.314672 1.93505C0.2671 1.92522 0.221995 1.9059 0.182044 1.87827C0.142094 1.85063 0.108116 1.81523 0.0821359 1.77418C0.0561554 1.73313 0.0387041 1.68728 0.0308217 1.63934C-0.0198497 1.38743 -0.0261234 0.995573 0.154363 0.647629C0.352223 0.265422 0.744082 0 1.34731 0H7.11807C7.21406 2.02288e-09 7.30612 0.0381327 7.37399 0.106009C7.44187 0.173886 7.48 0.265947 7.48 0.361939C7.48 0.457931 7.44187 0.549991 7.37399 0.617868C7.30612 0.685745 7.21406 0.723878 7.11807 0.723878H6.03225V5.26742C6.03225 5.99129 6.25086 6.18047 6.36668 6.23452C6.52207 6.30739 6.75709 6.27264 6.95399 6.17226C7.0395 6.12917 7.13861 6.12172 7.2296 6.15155C7.3206 6.18137 7.39607 6.24605 7.43948 6.3314C7.48289 6.41675 7.49071 6.51583 7.46122 6.60694C7.43173 6.69804 7.36734 6.77375 7.28214 6.81748C6.99645 6.96274 6.5076 7.09979 6.05976 6.88987C5.57235 6.66209 5.30837 6.11435 5.30837 5.26742V0.723878H3.13047C3.06864 1.74443 2.9711 2.7625 2.83802 3.77623C2.76399 4.34967 2.66691 4.91991 2.54702 5.48554C2.43409 5.99901 2.29897 6.46616 2.13344 6.79721C2.11244 6.84011 2.08315 6.87843 2.04727 6.90996C2.01138 6.94149 1.96961 6.9656 1.92437 6.98091C1.87912 6.99622 1.83129 7.00242 1.78363 6.99915C1.73598 6.99589 1.68944 6.98322 1.6467 6.96189C1.60397 6.94055 1.56587 6.91096 1.53463 6.87484C1.50338 6.83871 1.47959 6.79675 1.46463 6.75139C1.44968 6.70602 1.44385 6.65814 1.44748 6.61052C1.45112 6.56289 1.46415 6.51645 1.48582 6.47388C1.60984 6.22583 1.73 5.83059 1.84003 5.33015C1.95556 4.78398 2.04909 4.23339 2.12041 3.67971C2.26809 2.58231 2.36171 1.45162 2.40514 0.723878H1.34731C0.98827 0.723878 0.858455 0.860932 0.796684 0.981095Z" fill="#30007E"/>
</svg>
