<svg width="16" height="14" viewBox="0 0 16 14" fill="none" xmlns="http://www.w3.org/2000/svg">
<path d="M0.5 0.99475C0.501373 0.797784 0.580175 0.609263 0.719385 0.469913C0.858594 0.330563 1.04704 0.251571 1.244 0.25H14.756C15.167 0.25 15.5 0.58375 15.5 0.99475V13.0052C15.4986 13.2022 15.4198 13.3907 15.2806 13.5301C15.1414 13.6694 14.953 13.7484 14.756 13.75H1.244C1.04661 13.7498 0.857373 13.6712 0.717867 13.5316C0.578362 13.392 0.5 13.2026 0.5 13.0052V0.99475ZM2 1.75V12.25H14V1.75H2ZM3.5 3.25H8V7.75H3.5V3.25ZM5 4.75V6.25H6.5V4.75H5ZM3.5 9.25H12.5V10.75H3.5V9.25ZM9.5 3.25H12.5V4.75H9.5V3.25ZM9.5 6.25H12.5V7.75H9.5V6.25Z" fill="#7E7D7D"/>
</svg>
