<svg width="12" height="12" viewBox="0 0 12 12" fill="none" xmlns="http://www.w3.org/2000/svg">
<path d="M1.33333 5.4L2.66667 4.06667L6.33333 7.73333L8.66667 5.4L10.6667 7.4V1.33333H1.33333V5.4ZM1.33333 7.286V10.6667H3.4L5.39067 8.67667L2.66667 5.95267L1.33333 7.286ZM5.286 10.6667H10.6667V9.286L8.66667 7.286L5.286 10.6667ZM0.666667 0H11.3333C11.5101 0 11.6797 0.0702379 11.8047 0.195262C11.9298 0.320286 12 0.489856 12 0.666667V11.3333C12 11.5101 11.9298 11.6797 11.8047 11.8047C11.6797 11.9298 11.5101 12 11.3333 12H0.666667C0.489856 12 0.320286 11.9298 0.195262 11.8047C0.0702379 11.6797 0 11.5101 0 11.3333V0.666667C0 0.489856 0.0702379 0.320286 0.195262 0.195262C0.320286 0.0702379 0.489856 0 0.666667 0V0ZM8.33333 4.66667C8.06812 4.66667 7.81376 4.56131 7.62623 4.37377C7.43869 4.18624 7.33333 3.93188 7.33333 3.66667C7.33333 3.40145 7.43869 3.1471 7.62623 2.95956C7.81376 2.77202 8.06812 2.66667 8.33333 2.66667C8.59855 2.66667 8.8529 2.77202 9.04044 2.95956C9.22798 3.1471 9.33333 3.40145 9.33333 3.66667C9.33333 3.93188 9.22798 4.18624 9.04044 4.37377C8.8529 4.56131 8.59855 4.66667 8.33333 4.66667V4.66667Z" fill="#7C7C7C"/>
</svg>
