<svg width="16" height="16" viewBox="0 0 16 16" fill="none" xmlns="http://www.w3.org/2000/svg">
<path d="M0.659816 9.54494C0.444124 8.52624 0.444124 7.47365 0.659816 6.45494C1.49232 6.55244 2.21982 6.27719 2.45682 5.70419C2.69457 5.13044 2.37582 4.42169 1.71732 3.90194C2.2851 3.02919 3.02931 2.28497 3.90207 1.71719C4.42107 2.37494 5.13057 2.69444 5.70432 2.45669C6.27807 2.21894 6.55332 1.49219 6.45507 0.659694C7.47377 0.444002 8.52636 0.444002 9.54507 0.659694C9.44757 1.49219 9.72282 2.21969 10.2958 2.45669C10.8696 2.69444 11.5783 2.37569 12.0981 1.71719C12.9708 2.28497 13.715 3.02919 14.2828 3.90194C13.6251 4.42094 13.3056 5.13044 13.5433 5.70419C13.7811 6.27794 14.5078 6.55319 15.3403 6.45494C15.556 7.47365 15.556 8.52624 15.3403 9.54494C14.5078 9.44744 13.7803 9.72269 13.5433 10.2957C13.3056 10.8694 13.6243 11.5782 14.2828 12.0979C13.715 12.9707 12.9708 13.7149 12.0981 14.2827C11.5791 13.6249 10.8696 13.3054 10.2958 13.5432C9.72207 13.7809 9.44682 14.5077 9.54507 15.3402C8.52636 15.5559 7.47377 15.5559 6.45507 15.3402C6.55257 14.5077 6.27732 13.7802 5.70432 13.5432C5.13057 13.3054 4.42182 13.6242 3.90207 14.2827C3.02931 13.7149 2.2851 12.9707 1.71732 12.0979C2.37507 11.5789 2.69457 10.8694 2.45682 10.2957C2.21907 9.72194 1.49232 9.44669 0.659816 9.54494ZM2.00007 8.15744C2.82507 8.38619 3.50532 8.90894 3.84282 9.72194C4.17957 10.5357 4.06782 11.3869 3.64632 12.1309C3.71832 12.2074 3.79257 12.2817 3.86907 12.3537C4.61382 11.9322 5.46432 11.8212 6.27807 12.1572C7.09107 12.4947 7.61382 13.1749 7.84257 13.9999C7.94757 14.0029 8.05257 14.0029 8.15757 13.9999C8.38632 13.1749 8.90907 12.4947 9.72207 12.1572C10.5358 11.8204 11.3871 11.9322 12.1311 12.3537C12.2076 12.2817 12.2818 12.2074 12.3538 12.1309C11.9323 11.3862 11.8213 10.5357 12.1573 9.72194C12.4948 8.90894 13.1751 8.38619 14.0001 8.15744C14.0031 8.05244 14.0031 7.94744 14.0001 7.84244C13.1751 7.61369 12.4948 7.09094 12.1573 6.27794C11.8206 5.46419 11.9323 4.61294 12.3538 3.86894C12.2815 3.79274 12.2073 3.71847 12.1311 3.64619C11.3863 4.06769 10.5358 4.17869 9.72207 3.84269C8.90907 3.50519 8.38632 2.82494 8.15757 1.99994C8.05258 1.99716 7.94755 1.99716 7.84257 1.99994C7.61382 2.82494 7.09107 3.50519 6.27807 3.84269C5.46432 4.17944 4.61307 4.06769 3.86907 3.64619C3.79257 3.71819 3.71832 3.79244 3.64632 3.86894C4.06782 4.61369 4.17882 5.46419 3.84282 6.27794C3.50532 7.09094 2.82507 7.61369 2.00007 7.84244C1.99707 7.94744 1.99707 8.05244 2.00007 8.15744ZM8.00007 10.2499C7.40333 10.2499 6.83103 10.0129 6.40908 9.59093C5.98712 9.16898 5.75007 8.59668 5.75007 7.99994C5.75007 7.40321 5.98712 6.83091 6.40908 6.40895C6.83103 5.987 7.40333 5.74994 8.00007 5.74994C8.5968 5.74994 9.1691 5.987 9.59106 6.40895C10.013 6.83091 10.2501 7.40321 10.2501 7.99994C10.2501 8.59668 10.013 9.16898 9.59106 9.59093C9.1691 10.0129 8.5968 10.2499 8.00007 10.2499ZM8.00007 8.74994C8.19898 8.74994 8.38974 8.67093 8.5304 8.53027C8.67105 8.38962 8.75007 8.19886 8.75007 7.99994C8.75007 7.80103 8.67105 7.61027 8.5304 7.46961C8.38974 7.32896 8.19898 7.24994 8.00007 7.24994C7.80115 7.24994 7.61039 7.32896 7.46974 7.46961C7.32908 7.61027 7.25007 7.80103 7.25007 7.99994C7.25007 8.19886 7.32908 8.38962 7.46974 8.53027C7.61039 8.67093 7.80115 8.74994 8.00007 8.74994Z" fill="#7E7D7D"/>
</svg>
