<svg width="12" height="15" viewBox="0 0 12 15" fill="none" xmlns="http://www.w3.org/2000/svg">
<path d="M11.3332 14.6666H9.99984V13.3333C9.99984 12.8029 9.78912 12.2942 9.41405 11.9191C9.03898 11.544 8.53027 11.3333 7.99984 11.3333H3.99984C3.4694 11.3333 2.9607 11.544 2.58562 11.9191C2.21055 12.2942 1.99984 12.8029 1.99984 13.3333V14.6666H0.666504V13.3333C0.666504 12.4492 1.01769 11.6014 1.64281 10.9763C2.26794 10.3511 3.11578 9.99996 3.99984 9.99996H7.99984C8.88389 9.99996 9.73174 10.3511 10.3569 10.9763C10.982 11.6014 11.3332 12.4492 11.3332 13.3333V14.6666ZM5.99984 8.66663C5.47455 8.66663 4.95441 8.56316 4.4691 8.36214C3.9838 8.16113 3.54284 7.86649 3.17141 7.49505C2.79998 7.12362 2.50534 6.68266 2.30432 6.19736C2.1033 5.71206 1.99984 5.19191 1.99984 4.66663C1.99984 4.14134 2.1033 3.62119 2.30432 3.13589C2.50534 2.65059 2.79998 2.20963 3.17141 1.8382C3.54284 1.46676 3.9838 1.17213 4.4691 0.971108C4.95441 0.770089 5.47455 0.666626 5.99984 0.666626C7.0607 0.666626 8.07812 1.08805 8.82826 1.8382C9.57841 2.58834 9.99984 3.60576 9.99984 4.66663C9.99984 5.72749 9.57841 6.74491 8.82826 7.49505C8.07812 8.2452 7.0607 8.66663 5.99984 8.66663ZM5.99984 7.33329C6.70708 7.33329 7.38536 7.05234 7.88546 6.55224C8.38555 6.05215 8.6665 5.37387 8.6665 4.66663C8.6665 3.95938 8.38555 3.2811 7.88546 2.78101C7.38536 2.28091 6.70708 1.99996 5.99984 1.99996C5.29259 1.99996 4.61432 2.28091 4.11422 2.78101C3.61412 3.2811 3.33317 3.95938 3.33317 4.66663C3.33317 5.37387 3.61412 6.05215 4.11422 6.55224C4.61432 7.05234 5.29259 7.33329 5.99984 7.33329Z" fill="#7E7D7D"/>
</svg>
