<svg width="17" height="14" viewBox="0 0 17 14" fill="none" xmlns="http://www.w3.org/2000/svg">
<path d="M15.5 3.25H16.25V10.75H15.5V13C15.5 13.1989 15.421 13.3897 15.2803 13.5303C15.1397 13.671 14.9489 13.75 14.75 13.75H1.25C1.05109 13.75 0.860322 13.671 0.71967 13.5303C0.579018 13.3897 0.5 13.1989 0.5 13V1C0.5 0.801088 0.579018 0.610322 0.71967 0.46967C0.860322 0.329018 1.05109 0.25 1.25 0.25H14.75C14.9489 0.25 15.1397 0.329018 15.2803 0.46967C15.421 0.610322 15.5 0.801088 15.5 1V3.25ZM14 10.75H9.5C8.50544 10.75 7.55161 10.3549 6.84835 9.65165C6.14509 8.94839 5.75 7.99456 5.75 7C5.75 6.00544 6.14509 5.05161 6.84835 4.34835C7.55161 3.64509 8.50544 3.25 9.5 3.25H14V1.75H2V12.25H14V10.75ZM14.75 9.25V4.75H9.5C8.90326 4.75 8.33097 4.98705 7.90901 5.40901C7.48705 5.83097 7.25 6.40326 7.25 7C7.25 7.59674 7.48705 8.16903 7.90901 8.59099C8.33097 9.01295 8.90326 9.25 9.5 9.25H14.75ZM9.5 6.25H11.75V7.75H9.5V6.25Z" fill="#7E7D7D"/>
</svg>
