<svg width="64" height="64" viewBox="0 0 64 64" fill="none" xmlns="http://www.w3.org/2000/svg">
<path d="M32 48.021C30.1435 48.021 28.363 48.7585 27.0503 50.0713C25.7375 51.384 25 53.1645 25 55.021C25.321 64.287 38.68 64.285 39 55.021C39 53.1645 38.2625 51.384 36.9497 50.0713C35.637 48.7585 33.8565 48.021 32 48.021ZM35.535 58.557C30.721 63.087 23.934 56.297 28.465 51.486C33.279 46.955 40.066 53.746 35.535 58.557ZM55 45.02C53.1435 45.02 51.363 45.7575 50.0503 47.0703C48.7375 48.383 48 50.1635 48 52.02C48.321 61.286 61.68 61.284 62 52.02C62 50.1635 61.2625 48.383 59.9497 47.0703C58.637 45.7575 56.8565 45.02 55 45.02ZM58.535 55.556C53.721 60.086 46.934 53.296 51.465 48.485C56.279 43.954 63.066 50.745 58.535 55.556ZM9 45.02C7.14348 45.02 5.36301 45.7575 4.05025 47.0703C2.7375 48.383 2 50.1635 2 52.02C2.321 61.286 15.68 61.284 16 52.02C16 50.1635 15.2625 48.383 13.9497 47.0703C12.637 45.7575 10.8565 45.02 9 45.02ZM12.535 55.556C7.721 60.086 0.934 53.296 5.465 48.485C10.279 43.954 17.066 50.745 12.535 55.556ZM39.5 19.52C47.43 19.275 47.429 7.76502 39.5 7.52002C31.57 7.76602 31.571 19.276 39.5 19.52ZM36.672 10.692C40.492 7.05402 45.966 12.529 42.328 16.349C38.508 19.987 33.034 14.512 36.672 10.692Z" fill="#FF9927"/>
<path d="M31 41.9841V45.0211C31 45.2863 31.1054 45.5406 31.2929 45.7282C31.4804 45.9157 31.7348 46.0211 32 46.0211C32.2652 46.0211 32.5196 45.9157 32.7071 45.7282C32.8946 45.5406 33 45.2863 33 45.0211V41.9701C37.5084 41.7332 41.7607 39.8007 44.904 36.5601L50.2 43.6211C50.3591 43.8332 50.596 43.9735 50.8586 44.011C51.1211 44.0485 51.3878 43.9802 51.6 43.8211C51.8122 43.6619 51.9524 43.425 51.99 43.1625C52.0275 42.8999 51.9591 42.6332 51.8 42.4211L46.24 35.0081C47.9938 32.7313 49.1778 30.0683 49.6932 27.241C50.2086 24.4137 50.0406 21.5042 49.203 18.7551C56.629 6.97705 39.265 -4.20095 30.77 6.07405C16.595 6.78905 8.957 24.0731 17.754 35.0161L12.2 42.4211C12.0409 42.6332 11.9725 42.8999 12.0101 43.1625C12.0476 43.425 12.1878 43.6619 12.4 43.8211C12.5051 43.8998 12.6246 43.9572 12.7518 43.9898C12.879 44.0224 13.0114 44.0296 13.1414 44.011C13.404 43.9735 13.6409 43.8332 13.8 43.6211L19.097 36.5591C22.2376 39.8051 26.4898 41.7431 31 41.9841ZM32 40.0211C29.3008 40.0252 26.6454 39.3392 24.286 38.0281C25.447 36.9031 26.898 35.7591 27 34.0211C26.974 31.8041 27.136 30.2571 29.758 30.9911C31.466 31.4141 31.966 32.4361 32.984 33.7351C33.3144 34.1848 33.7464 34.5502 34.2448 34.8013C34.7432 35.0524 35.2939 35.1822 35.852 35.1801C36.869 35.1831 38.064 34.7041 39.102 34.7611C40.4012 34.7279 41.6774 35.1078 42.747 35.8461C39.814 38.5344 35.9787 40.025 32 40.0211ZM39.5 4.02105C40.7476 4.02079 41.9831 4.26634 43.1358 4.74366C44.2885 5.22099 45.3359 5.92074 46.2181 6.80295C47.1003 7.68516 47.8001 8.73254 48.2774 9.88525C48.7547 11.038 49.0003 12.2734 49 13.5211C48.498 18.5151 42.93 23.4801 39.5 26.7011C36.685 24.1431 30.235 18.1951 30 13.5211C30.0034 11.0026 31.0054 8.58819 32.7863 6.80734C34.5671 5.02649 36.9815 4.02449 39.5 4.02105ZM18.346 15.6831L24.631 21.3351C24.6861 21.384 24.7265 21.4472 24.7478 21.5178C24.7691 21.5883 24.7703 21.6634 24.7515 21.7346C24.7326 21.8058 24.6943 21.8704 24.6409 21.9211C24.5875 21.9719 24.5211 22.0068 24.449 22.0221C22.1483 22.8896 20.2337 24.5513 19.051 26.7071C18.6017 27.9126 17.973 29.0433 17.186 30.0611C16.2496 27.739 15.8669 25.2307 16.0683 22.7351C16.2696 20.2394 17.0495 17.825 18.346 15.6831ZM18.184 32.0411C19.3683 30.6422 20.3035 29.0504 20.949 27.3351C21.5921 26.3582 22.4171 25.5142 23.379 24.8491C23.8251 24.49 24.3209 24.1976 24.851 23.9811C25.2832 23.8883 25.6815 23.6783 26.0023 23.3742C26.3231 23.07 26.554 22.6835 26.6697 22.2568C26.7853 21.8302 26.7813 21.3799 26.6581 20.9554C26.5349 20.5309 26.2972 20.1484 25.971 19.8501C25.971 19.8451 19.521 14.0531 19.521 14.0491C21.9569 10.9882 25.4317 8.92823 29.286 8.26005C28.3836 9.88142 27.9521 11.7227 28.0403 13.5762C28.1284 15.4297 28.7327 17.2217 29.785 18.7501C31.562 21.9761 36.862 27.2021 38.862 28.7911C39.0414 28.9397 39.267 29.021 39.5 29.021C39.733 29.021 39.9586 28.9397 40.138 28.7911C42.9005 26.429 45.4313 23.8088 47.696 20.9661C48.1579 23.3295 48.0782 25.767 47.463 28.0953C46.8478 30.4236 45.7131 32.5822 44.144 34.4091C43.0962 33.6376 41.8866 33.1145 40.6069 32.8793C39.3272 32.644 38.0107 32.7027 36.757 33.0511C36.3132 33.2419 35.8136 33.2577 35.3586 33.0954C34.9036 32.9331 34.5268 32.6047 34.304 32.1761C33.8904 31.571 33.4228 31.0047 32.907 30.4841C31.226 28.7831 26.89 27.8121 25.573 30.5071C25.1062 31.6161 24.9098 32.8202 25 34.0201C24.977 34.1946 24.9129 34.3611 24.813 34.5061C24.1695 35.3974 23.4109 36.1997 22.557 36.8921C20.7779 35.5963 19.2885 33.9448 18.184 32.0411Z" fill="#FF9927"/>
</svg>
